<svg id="contact-t" width="831" height="359" viewBox="0 0 831 359" fill="none" xmlns="http://www.w3.org/2000/svg">
<mask id="path-1-outside-1" maskUnits="userSpaceOnUse" x="-0.791992" y="0.335999" width="831" height="359" fill="black">
<rect id="path-1" fill="white" x="-0.791992" y="0.335999" width="831" height="359"/>
<path d="M17.192 92.344H52.328V103H4.08801V2.632H17.192V92.344Z"/>
<path d="M138.244 60.52C138.244 63.016 138.1 65.656 137.812 68.44H74.7403C75.2203 76.216 77.8603 82.312 82.6603 86.728C87.5563 91.048 93.4603 93.208 100.372 93.208C106.036 93.208 110.74 91.912 114.484 89.32C118.324 86.632 121.012 83.08 122.548 78.664H136.66C134.548 86.248 130.324 92.44 123.988 97.24C117.652 101.944 109.78 104.296 100.372 104.296C92.8843 104.296 86.1643 102.616 80.2123 99.256C74.3563 95.896 69.7483 91.144 66.3883 85C63.0283 78.76 61.3483 71.56 61.3483 63.4C61.3483 55.24 62.9803 48.088 66.2443 41.944C69.5083 35.8 74.0683 31.096 79.9243 27.832C85.8763 24.472 92.6923 22.792 100.372 22.792C107.86 22.792 114.484 24.424 120.244 27.688C126.004 30.952 130.42 35.464 133.492 41.224C136.66 46.888 138.244 53.32 138.244 60.52ZM124.708 57.784C124.708 52.792 123.604 48.52 121.396 44.968C119.188 41.32 116.164 38.584 112.324 36.76C108.58 34.84 104.404 33.88 99.7963 33.88C93.1723 33.88 87.5083 35.992 82.8043 40.216C78.1963 44.44 75.5563 50.296 74.8843 57.784H124.708Z"/>
<path d="M171.525 34.888V81.4C171.525 85.24 172.341 87.976 173.973 89.608C175.605 91.144 178.437 91.912 182.469 91.912H192.117V103H180.309C173.013 103 167.541 101.32 163.893 97.96C160.245 94.6 158.421 89.08 158.421 81.4V34.888H148.197V24.088H158.421V4.216H171.525V24.088H192.117V34.888H171.525Z"/>
<path d="M210.01 2.632H224.554L210.73 35.32H201.514L210.01 2.632Z"/>
<path d="M267.43 104.296C261.382 104.296 255.958 103.288 251.158 101.272C246.358 99.16 242.566 96.28 239.782 92.632C236.998 88.888 235.462 84.616 235.174 79.816H248.71C249.094 83.752 250.918 86.968 254.182 89.464C257.542 91.96 261.91 93.208 267.286 93.208C272.278 93.208 276.214 92.104 279.094 89.896C281.974 87.688 283.414 84.904 283.414 81.544C283.414 78.088 281.878 75.544 278.806 73.912C275.734 72.184 270.982 70.504 264.55 68.872C258.694 67.336 253.894 65.8 250.15 64.264C246.502 62.632 243.334 60.28 240.646 57.208C238.054 54.04 236.758 49.912 236.758 44.824C236.758 40.792 237.958 37.096 240.358 33.736C242.758 30.376 246.166 27.736 250.582 25.816C254.998 23.8 260.038 22.792 265.702 22.792C274.438 22.792 281.494 25 286.87 29.416C292.246 33.832 295.126 39.88 295.51 47.56H282.406C282.118 43.432 280.438 40.12 277.366 37.624C274.39 35.128 270.358 33.88 265.27 33.88C260.566 33.88 256.822 34.888 254.038 36.904C251.254 38.92 249.862 41.56 249.862 44.824C249.862 47.416 250.678 49.576 252.31 51.304C254.038 52.936 256.15 54.28 258.646 55.336C261.238 56.296 264.79 57.4 269.302 58.648C274.966 60.184 279.574 61.72 283.126 63.256C286.678 64.696 289.702 66.904 292.198 69.88C294.79 72.856 296.134 76.744 296.23 81.544C296.23 85.864 295.03 89.752 292.63 93.208C290.23 96.664 286.822 99.4 282.406 101.416C278.086 103.336 273.094 104.296 267.43 104.296Z"/>
<path d="M348.223 52.744C348.223 42.952 350.431 34.168 354.847 26.392C359.263 18.52 365.263 12.376 372.847 7.96C380.527 3.544 389.023 1.336 398.335 1.336C409.279 1.336 418.831 3.976 426.991 9.256C435.151 14.536 441.103 22.024 444.847 31.72H429.151C426.367 25.672 422.335 21.016 417.055 17.752C411.871 14.488 405.631 12.856 398.335 12.856C391.327 12.856 385.039 14.488 379.471 17.752C373.903 21.016 369.535 25.672 366.367 31.72C363.199 37.672 361.615 44.68 361.615 52.744C361.615 60.712 363.199 67.72 366.367 73.768C369.535 79.72 373.903 84.328 379.471 87.592C385.039 90.856 391.327 92.488 398.335 92.488C405.631 92.488 411.871 90.904 417.055 87.736C422.335 84.472 426.367 79.816 429.151 73.768H444.847C441.103 83.368 435.151 90.808 426.991 96.088C418.831 101.272 409.279 103.864 398.335 103.864C389.023 103.864 380.527 101.704 372.847 97.384C365.263 92.968 359.263 86.872 354.847 79.096C350.431 71.32 348.223 62.536 348.223 52.744Z"/>
<path d="M477.458 36.904C479.762 32.392 483.026 28.888 487.25 26.392C491.57 23.896 496.802 22.648 502.946 22.648V36.184H499.49C484.802 36.184 477.458 44.152 477.458 60.088V103H464.354V24.088H477.458V36.904Z"/>
<path d="M590.072 60.52C590.072 63.016 589.928 65.656 589.64 68.44H526.568C527.048 76.216 529.688 82.312 534.488 86.728C539.384 91.048 545.288 93.208 552.2 93.208C557.864 93.208 562.568 91.912 566.312 89.32C570.152 86.632 572.84 83.08 574.376 78.664H588.488C586.376 86.248 582.152 92.44 575.816 97.24C569.48 101.944 561.608 104.296 552.2 104.296C544.712 104.296 537.992 102.616 532.04 99.256C526.184 95.896 521.576 91.144 518.216 85C514.856 78.76 513.176 71.56 513.176 63.4C513.176 55.24 514.808 48.088 518.072 41.944C521.336 35.8 525.896 31.096 531.752 27.832C537.704 24.472 544.52 22.792 552.2 22.792C559.688 22.792 566.312 24.424 572.072 27.688C577.832 30.952 582.248 35.464 585.32 41.224C588.488 46.888 590.072 53.32 590.072 60.52ZM576.536 57.784C576.536 52.792 575.432 48.52 573.224 44.968C571.016 41.32 567.992 38.584 564.152 36.76C560.408 34.84 556.232 33.88 551.624 33.88C545 33.88 539.336 35.992 534.632 40.216C530.024 44.44 527.384 50.296 526.712 57.784H576.536Z"/>
<path d="M602.473 63.256C602.473 55.192 604.105 48.136 607.369 42.088C610.633 35.944 615.097 31.192 620.761 27.832C626.521 24.472 632.905 22.792 639.913 22.792C646.825 22.792 652.825 24.28 657.913 27.256C663.001 30.232 666.793 33.976 669.289 38.488V24.088H682.537V103H669.289V88.312C666.697 92.92 662.809 96.76 657.625 99.832C652.537 102.808 646.585 104.296 639.769 104.296C632.761 104.296 626.425 102.568 620.761 99.112C615.097 95.656 610.633 90.808 607.369 84.568C604.105 78.328 602.473 71.224 602.473 63.256ZM669.289 63.4C669.289 57.448 668.089 52.264 665.689 47.848C663.289 43.432 660.025 40.072 655.897 37.768C651.865 35.368 647.401 34.168 642.505 34.168C637.609 34.168 633.145 35.32 629.113 37.624C625.081 39.928 621.865 43.288 619.465 47.704C617.065 52.12 615.865 57.304 615.865 63.256C615.865 69.304 617.065 74.584 619.465 79.096C621.865 83.512 625.081 86.92 629.113 89.32C633.145 91.624 637.609 92.776 642.505 92.776C647.401 92.776 651.865 91.624 655.897 89.32C660.025 86.92 663.289 83.512 665.689 79.096C668.089 74.584 669.289 69.352 669.289 63.4Z"/>
<path d="M720.666 34.888V81.4C720.666 85.24 721.482 87.976 723.114 89.608C724.746 91.144 727.578 91.912 731.61 91.912H741.258V103H729.45C722.154 103 716.682 101.32 713.034 97.96C709.386 94.6 707.562 89.08 707.562 81.4V34.888H697.338V24.088H707.562V4.216H720.666V24.088H741.258V34.888H720.666Z"/>
<path d="M829.135 60.52C829.135 63.016 828.991 65.656 828.703 68.44H765.631C766.111 76.216 768.751 82.312 773.551 86.728C778.447 91.048 784.351 93.208 791.263 93.208C796.927 93.208 801.631 91.912 805.375 89.32C809.215 86.632 811.903 83.08 813.439 78.664H827.551C825.439 86.248 821.215 92.44 814.879 97.24C808.543 101.944 800.671 104.296 791.263 104.296C783.775 104.296 777.055 102.616 771.103 99.256C765.247 95.896 760.639 91.144 757.279 85C753.919 78.76 752.239 71.56 752.239 63.4C752.239 55.24 753.871 48.088 757.135 41.944C760.399 35.8 764.959 31.096 770.815 27.832C776.767 24.472 783.583 22.792 791.263 22.792C798.751 22.792 805.375 24.424 811.135 27.688C816.895 30.952 821.311 35.464 824.383 41.224C827.551 46.888 829.135 53.32 829.135 60.52ZM815.599 57.784C815.599 52.792 814.495 48.52 812.287 44.968C810.079 41.32 807.055 38.584 803.215 36.76C799.471 34.84 795.295 33.88 790.687 33.88C784.063 33.88 778.399 35.992 773.695 40.216C769.087 44.44 766.447 50.296 765.775 57.784H815.599Z"/>
<path d="M35.912 320.008C29.288 320.008 23.336 318.856 18.056 316.552C12.872 314.152 8.79201 310.888 5.81601 306.76C2.84001 302.536 1.30401 297.688 1.20801 292.216H15.176C15.656 296.92 17.576 300.904 20.936 304.168C24.392 307.336 29.384 308.92 35.912 308.92C42.152 308.92 47.048 307.384 50.6 304.312C54.248 301.144 56.072 297.112 56.072 292.216C56.072 288.376 55.016 285.256 52.904 282.856C50.792 280.456 48.152 278.632 44.984 277.384C41.816 276.136 37.544 274.792 32.168 273.352C25.544 271.624 20.216 269.896 16.184 268.168C12.248 266.44 8.84001 263.752 5.96001 260.104C3.17601 256.36 1.78401 251.368 1.78401 245.128C1.78401 239.656 3.17601 234.808 5.96001 230.584C8.74401 226.36 12.632 223.096 17.624 220.792C22.712 218.488 28.52 217.336 35.048 217.336C44.456 217.336 52.136 219.688 58.088 224.392C64.136 229.096 67.544 235.336 68.312 243.112H53.912C53.432 239.272 51.416 235.912 47.864 233.032C44.312 230.056 39.608 228.568 33.752 228.568C28.28 228.568 23.816 230.008 20.36 232.888C16.904 235.672 15.176 239.608 15.176 244.696C15.176 248.344 16.184 251.32 18.2 253.624C20.312 255.928 22.856 257.704 25.832 258.952C28.904 260.104 33.176 261.448 38.648 262.984C45.272 264.808 50.6 266.632 54.632 268.456C58.664 270.184 62.12 272.92 65 276.664C67.88 280.312 69.32 285.304 69.32 291.64C69.32 296.536 68.024 301.144 65.432 305.464C62.84 309.784 59 313.288 53.912 315.976C48.824 318.664 42.824 320.008 35.912 320.008Z"/>
<path d="M123.02 320.296C115.628 320.296 108.908 318.616 102.86 315.256C96.9076 311.896 92.2036 307.144 88.7476 301C85.3876 294.76 83.7076 287.56 83.7076 279.4C83.7076 271.336 85.4356 264.232 88.8916 258.088C92.4436 251.848 97.2436 247.096 103.292 243.832C109.34 240.472 116.108 238.792 123.596 238.792C131.084 238.792 137.852 240.472 143.9 243.832C149.948 247.096 154.7 251.8 158.156 257.944C161.708 264.088 163.484 271.24 163.484 279.4C163.484 287.56 161.66 294.76 158.012 301C154.46 307.144 149.612 311.896 143.468 315.256C137.324 318.616 130.508 320.296 123.02 320.296ZM123.02 308.776C127.724 308.776 132.14 307.672 136.268 305.464C140.396 303.256 143.708 299.944 146.204 295.528C148.796 291.112 150.092 285.736 150.092 279.4C150.092 273.064 148.844 267.688 146.348 263.272C143.852 258.856 140.588 255.592 136.556 253.48C132.524 251.272 128.156 250.168 123.452 250.168C118.652 250.168 114.236 251.272 110.204 253.48C106.268 255.592 103.1 258.856 100.7 263.272C98.2996 267.688 97.0996 273.064 97.0996 279.4C97.0996 285.832 98.2516 291.256 100.556 295.672C102.956 300.088 106.124 303.4 110.06 305.608C113.996 307.72 118.316 308.776 123.02 308.776Z"/>
<path d="M275.609 238.648C281.753 238.648 287.225 239.944 292.025 242.536C296.825 245.032 300.617 248.824 303.401 253.912C306.185 259 307.577 265.192 307.577 272.488V319H294.617V274.36C294.617 266.488 292.649 260.488 288.713 256.36C284.873 252.136 279.641 250.024 273.017 250.024C266.201 250.024 260.777 252.232 256.745 256.648C252.713 260.968 250.697 267.256 250.697 275.512V319H237.737V274.36C237.737 266.488 235.769 260.488 231.833 256.36C227.993 252.136 222.761 250.024 216.137 250.024C209.321 250.024 203.897 252.232 199.865 256.648C195.833 260.968 193.817 267.256 193.817 275.512V319H180.713V240.088H193.817V251.464C196.409 247.336 199.865 244.168 204.185 241.96C208.601 239.752 213.449 238.648 218.729 238.648C225.353 238.648 231.209 240.136 236.297 243.112C241.385 246.088 245.177 250.456 247.673 256.216C249.881 250.648 253.529 246.328 258.617 243.256C263.705 240.184 269.369 238.648 275.609 238.648Z"/>
<path d="M401.072 276.52C401.072 279.016 400.928 281.656 400.64 284.44H337.568C338.048 292.216 340.688 298.312 345.488 302.728C350.384 307.048 356.288 309.208 363.2 309.208C368.864 309.208 373.568 307.912 377.312 305.32C381.152 302.632 383.84 299.08 385.376 294.664H399.488C397.376 302.248 393.152 308.44 386.816 313.24C380.48 317.944 372.608 320.296 363.2 320.296C355.712 320.296 348.992 318.616 343.04 315.256C337.184 311.896 332.576 307.144 329.216 301C325.856 294.76 324.176 287.56 324.176 279.4C324.176 271.24 325.808 264.088 329.072 257.944C332.336 251.8 336.896 247.096 342.752 243.832C348.704 240.472 355.52 238.792 363.2 238.792C370.688 238.792 377.312 240.424 383.072 243.688C388.832 246.952 393.248 251.464 396.32 257.224C399.488 262.888 401.072 269.32 401.072 276.52ZM387.536 273.784C387.536 268.792 386.432 264.52 384.224 260.968C382.016 257.32 378.992 254.584 375.152 252.76C371.408 250.84 367.232 249.88 362.624 249.88C356 249.88 350.336 251.992 345.632 256.216C341.024 260.44 338.384 266.296 337.712 273.784H387.536Z"/>
<path d="M434.353 250.888V297.4C434.353 301.24 435.169 303.976 436.801 305.608C438.433 307.144 441.265 307.912 445.297 307.912H454.945V319H443.137C435.841 319 430.369 317.32 426.721 313.96C423.073 310.6 421.249 305.08 421.249 297.4V250.888H411.025V240.088H421.249V220.216H434.353V240.088H454.945V250.888H434.353Z"/>
<path d="M509.99 238.648C515.942 238.648 521.318 239.944 526.118 242.536C530.918 245.032 534.662 248.824 537.35 253.912C540.134 259 541.526 265.192 541.526 272.488V319H528.566V274.36C528.566 266.488 526.598 260.488 522.662 256.36C518.726 252.136 513.35 250.024 506.534 250.024C499.622 250.024 494.102 252.184 489.974 256.504C485.942 260.824 483.926 267.112 483.926 275.368V319H470.822V212.44H483.926V251.32C486.518 247.288 490.07 244.168 494.582 241.96C499.19 239.752 504.326 238.648 509.99 238.648Z"/>
<path d="M569.7 227.272C567.204 227.272 565.092 226.408 563.364 224.68C561.636 222.952 560.772 220.84 560.772 218.344C560.772 215.848 561.636 213.736 563.364 212.008C565.092 210.28 567.204 209.416 569.7 209.416C572.1 209.416 574.116 210.28 575.748 212.008C577.476 213.736 578.34 215.848 578.34 218.344C578.34 220.84 577.476 222.952 575.748 224.68C574.116 226.408 572.1 227.272 569.7 227.272ZM576.036 240.088V319H562.932V240.088H576.036Z"/>
<path d="M636.817 238.648C646.417 238.648 654.193 241.576 660.145 247.432C666.097 253.192 669.073 261.544 669.073 272.488V319H656.113V274.36C656.113 266.488 654.145 260.488 650.209 256.36C646.273 252.136 640.897 250.024 634.081 250.024C627.169 250.024 621.649 252.184 617.521 256.504C613.489 260.824 611.473 267.112 611.473 275.368V319H598.369V240.088H611.473V251.32C614.065 247.288 617.569 244.168 621.985 241.96C626.497 239.752 631.441 238.648 636.817 238.648Z"/>
<path d="M723.023 238.792C729.839 238.792 735.791 240.28 740.879 243.256C746.063 246.232 749.903 249.976 752.399 254.488V240.088H765.647V320.728C765.647 327.928 764.111 334.312 761.039 339.88C757.967 345.544 753.551 349.96 747.791 353.128C742.127 356.296 735.503 357.88 727.919 357.88C717.551 357.88 708.911 355.432 701.999 350.536C695.087 345.64 691.007 338.968 689.759 330.52H702.719C704.159 335.32 707.135 339.16 711.647 342.04C716.159 345.016 721.583 346.504 727.919 346.504C735.119 346.504 740.975 344.248 745.487 339.736C750.095 335.224 752.399 328.888 752.399 320.728V304.168C749.807 308.776 745.967 312.616 740.879 315.688C735.791 318.76 729.839 320.296 723.023 320.296C716.015 320.296 709.631 318.568 703.871 315.112C698.207 311.656 693.743 306.808 690.479 300.568C687.215 294.328 685.583 287.224 685.583 279.256C685.583 271.192 687.215 264.136 690.479 258.088C693.743 251.944 698.207 247.192 703.871 243.832C709.631 240.472 716.015 238.792 723.023 238.792ZM752.399 279.4C752.399 273.448 751.199 268.264 748.799 263.848C746.399 259.432 743.135 256.072 739.007 253.768C734.975 251.368 730.511 250.168 725.615 250.168C720.719 250.168 716.255 251.32 712.223 253.624C708.191 255.928 704.975 259.288 702.575 263.704C700.175 268.12 698.975 273.304 698.975 279.256C698.975 285.304 700.175 290.584 702.575 295.096C704.975 299.512 708.191 302.92 712.223 305.32C716.255 307.624 720.719 308.776 725.615 308.776C730.511 308.776 734.975 307.624 739.007 305.32C743.135 302.92 746.399 299.512 748.799 295.096C751.199 290.584 752.399 285.352 752.399 279.4Z"/>
<path d="M804.783 218.632L803.199 290.632H792.255L790.671 218.632H804.783ZM798.303 319.864C795.807 319.864 793.695 319 791.967 317.272C790.239 315.544 789.375 313.432 789.375 310.936C789.375 308.44 790.239 306.328 791.967 304.6C793.695 302.872 795.807 302.008 798.303 302.008C800.703 302.008 802.719 302.872 804.351 304.6C806.079 306.328 806.943 308.44 806.943 310.936C806.943 313.432 806.079 315.544 804.351 317.272C802.719 319 800.703 319.864 798.303 319.864Z"/>
</mask>
<path d="M17.192 92.344H52.328V103H4.08801V2.632H17.192V92.344Z" stroke="#E6E6E6" stroke-width="2" mask="url(#path-1-outside-1)"/>
<path d="M138.244 60.52C138.244 63.016 138.1 65.656 137.812 68.44H74.7403C75.2203 76.216 77.8603 82.312 82.6603 86.728C87.5563 91.048 93.4603 93.208 100.372 93.208C106.036 93.208 110.74 91.912 114.484 89.32C118.324 86.632 121.012 83.08 122.548 78.664H136.66C134.548 86.248 130.324 92.44 123.988 97.24C117.652 101.944 109.78 104.296 100.372 104.296C92.8843 104.296 86.1643 102.616 80.2123 99.256C74.3563 95.896 69.7483 91.144 66.3883 85C63.0283 78.76 61.3483 71.56 61.3483 63.4C61.3483 55.24 62.9803 48.088 66.2443 41.944C69.5083 35.8 74.0683 31.096 79.9243 27.832C85.8763 24.472 92.6923 22.792 100.372 22.792C107.86 22.792 114.484 24.424 120.244 27.688C126.004 30.952 130.42 35.464 133.492 41.224C136.66 46.888 138.244 53.32 138.244 60.52ZM124.708 57.784C124.708 52.792 123.604 48.52 121.396 44.968C119.188 41.32 116.164 38.584 112.324 36.76C108.58 34.84 104.404 33.88 99.7963 33.88C93.1723 33.88 87.5083 35.992 82.8043 40.216C78.1963 44.44 75.5563 50.296 74.8843 57.784H124.708Z" stroke="#E6E6E6" stroke-width="2" mask="url(#path-1-outside-1)"/>
<path d="M171.525 34.888V81.4C171.525 85.24 172.341 87.976 173.973 89.608C175.605 91.144 178.437 91.912 182.469 91.912H192.117V103H180.309C173.013 103 167.541 101.32 163.893 97.96C160.245 94.6 158.421 89.08 158.421 81.4V34.888H148.197V24.088H158.421V4.216H171.525V24.088H192.117V34.888H171.525Z" stroke="#E6E6E6" stroke-width="2" mask="url(#path-1-outside-1)"/>
<path d="M210.01 2.632H224.554L210.73 35.32H201.514L210.01 2.632Z" stroke="#E6E6E6" stroke-width="2" mask="url(#path-1-outside-1)"/>
<path d="M267.43 104.296C261.382 104.296 255.958 103.288 251.158 101.272C246.358 99.16 242.566 96.28 239.782 92.632C236.998 88.888 235.462 84.616 235.174 79.816H248.71C249.094 83.752 250.918 86.968 254.182 89.464C257.542 91.96 261.91 93.208 267.286 93.208C272.278 93.208 276.214 92.104 279.094 89.896C281.974 87.688 283.414 84.904 283.414 81.544C283.414 78.088 281.878 75.544 278.806 73.912C275.734 72.184 270.982 70.504 264.55 68.872C258.694 67.336 253.894 65.8 250.15 64.264C246.502 62.632 243.334 60.28 240.646 57.208C238.054 54.04 236.758 49.912 236.758 44.824C236.758 40.792 237.958 37.096 240.358 33.736C242.758 30.376 246.166 27.736 250.582 25.816C254.998 23.8 260.038 22.792 265.702 22.792C274.438 22.792 281.494 25 286.87 29.416C292.246 33.832 295.126 39.88 295.51 47.56H282.406C282.118 43.432 280.438 40.12 277.366 37.624C274.39 35.128 270.358 33.88 265.27 33.88C260.566 33.88 256.822 34.888 254.038 36.904C251.254 38.92 249.862 41.56 249.862 44.824C249.862 47.416 250.678 49.576 252.31 51.304C254.038 52.936 256.15 54.28 258.646 55.336C261.238 56.296 264.79 57.4 269.302 58.648C274.966 60.184 279.574 61.72 283.126 63.256C286.678 64.696 289.702 66.904 292.198 69.88C294.79 72.856 296.134 76.744 296.23 81.544C296.23 85.864 295.03 89.752 292.63 93.208C290.23 96.664 286.822 99.4 282.406 101.416C278.086 103.336 273.094 104.296 267.43 104.296Z" stroke="#E6E6E6" stroke-width="2" mask="url(#path-1-outside-1)"/>
<path d="M348.223 52.744C348.223 42.952 350.431 34.168 354.847 26.392C359.263 18.52 365.263 12.376 372.847 7.96C380.527 3.544 389.023 1.336 398.335 1.336C409.279 1.336 418.831 3.976 426.991 9.256C435.151 14.536 441.103 22.024 444.847 31.72H429.151C426.367 25.672 422.335 21.016 417.055 17.752C411.871 14.488 405.631 12.856 398.335 12.856C391.327 12.856 385.039 14.488 379.471 17.752C373.903 21.016 369.535 25.672 366.367 31.72C363.199 37.672 361.615 44.68 361.615 52.744C361.615 60.712 363.199 67.72 366.367 73.768C369.535 79.72 373.903 84.328 379.471 87.592C385.039 90.856 391.327 92.488 398.335 92.488C405.631 92.488 411.871 90.904 417.055 87.736C422.335 84.472 426.367 79.816 429.151 73.768H444.847C441.103 83.368 435.151 90.808 426.991 96.088C418.831 101.272 409.279 103.864 398.335 103.864C389.023 103.864 380.527 101.704 372.847 97.384C365.263 92.968 359.263 86.872 354.847 79.096C350.431 71.32 348.223 62.536 348.223 52.744Z" stroke="#E6E6E6" stroke-width="2" mask="url(#path-1-outside-1)"/>
<path d="M477.458 36.904C479.762 32.392 483.026 28.888 487.25 26.392C491.57 23.896 496.802 22.648 502.946 22.648V36.184H499.49C484.802 36.184 477.458 44.152 477.458 60.088V103H464.354V24.088H477.458V36.904Z" stroke="#E6E6E6" stroke-width="2" mask="url(#path-1-outside-1)"/>
<path d="M590.072 60.52C590.072 63.016 589.928 65.656 589.64 68.44H526.568C527.048 76.216 529.688 82.312 534.488 86.728C539.384 91.048 545.288 93.208 552.2 93.208C557.864 93.208 562.568 91.912 566.312 89.32C570.152 86.632 572.84 83.08 574.376 78.664H588.488C586.376 86.248 582.152 92.44 575.816 97.24C569.48 101.944 561.608 104.296 552.2 104.296C544.712 104.296 537.992 102.616 532.04 99.256C526.184 95.896 521.576 91.144 518.216 85C514.856 78.76 513.176 71.56 513.176 63.4C513.176 55.24 514.808 48.088 518.072 41.944C521.336 35.8 525.896 31.096 531.752 27.832C537.704 24.472 544.52 22.792 552.2 22.792C559.688 22.792 566.312 24.424 572.072 27.688C577.832 30.952 582.248 35.464 585.32 41.224C588.488 46.888 590.072 53.32 590.072 60.52ZM576.536 57.784C576.536 52.792 575.432 48.52 573.224 44.968C571.016 41.32 567.992 38.584 564.152 36.76C560.408 34.84 556.232 33.88 551.624 33.88C545 33.88 539.336 35.992 534.632 40.216C530.024 44.44 527.384 50.296 526.712 57.784H576.536Z" stroke="#E6E6E6" stroke-width="2" mask="url(#path-1-outside-1)"/>
<path d="M602.473 63.256C602.473 55.192 604.105 48.136 607.369 42.088C610.633 35.944 615.097 31.192 620.761 27.832C626.521 24.472 632.905 22.792 639.913 22.792C646.825 22.792 652.825 24.28 657.913 27.256C663.001 30.232 666.793 33.976 669.289 38.488V24.088H682.537V103H669.289V88.312C666.697 92.92 662.809 96.76 657.625 99.832C652.537 102.808 646.585 104.296 639.769 104.296C632.761 104.296 626.425 102.568 620.761 99.112C615.097 95.656 610.633 90.808 607.369 84.568C604.105 78.328 602.473 71.224 602.473 63.256ZM669.289 63.4C669.289 57.448 668.089 52.264 665.689 47.848C663.289 43.432 660.025 40.072 655.897 37.768C651.865 35.368 647.401 34.168 642.505 34.168C637.609 34.168 633.145 35.32 629.113 37.624C625.081 39.928 621.865 43.288 619.465 47.704C617.065 52.12 615.865 57.304 615.865 63.256C615.865 69.304 617.065 74.584 619.465 79.096C621.865 83.512 625.081 86.92 629.113 89.32C633.145 91.624 637.609 92.776 642.505 92.776C647.401 92.776 651.865 91.624 655.897 89.32C660.025 86.92 663.289 83.512 665.689 79.096C668.089 74.584 669.289 69.352 669.289 63.4Z" stroke="#E6E6E6" stroke-width="2" mask="url(#path-1-outside-1)"/>
<path d="M720.666 34.888V81.4C720.666 85.24 721.482 87.976 723.114 89.608C724.746 91.144 727.578 91.912 731.61 91.912H741.258V103H729.45C722.154 103 716.682 101.32 713.034 97.96C709.386 94.6 707.562 89.08 707.562 81.4V34.888H697.338V24.088H707.562V4.216H720.666V24.088H741.258V34.888H720.666Z" stroke="#E6E6E6" stroke-width="2" mask="url(#path-1-outside-1)"/>
<path d="M829.135 60.52C829.135 63.016 828.991 65.656 828.703 68.44H765.631C766.111 76.216 768.751 82.312 773.551 86.728C778.447 91.048 784.351 93.208 791.263 93.208C796.927 93.208 801.631 91.912 805.375 89.32C809.215 86.632 811.903 83.08 813.439 78.664H827.551C825.439 86.248 821.215 92.44 814.879 97.24C808.543 101.944 800.671 104.296 791.263 104.296C783.775 104.296 777.055 102.616 771.103 99.256C765.247 95.896 760.639 91.144 757.279 85C753.919 78.76 752.239 71.56 752.239 63.4C752.239 55.24 753.871 48.088 757.135 41.944C760.399 35.8 764.959 31.096 770.815 27.832C776.767 24.472 783.583 22.792 791.263 22.792C798.751 22.792 805.375 24.424 811.135 27.688C816.895 30.952 821.311 35.464 824.383 41.224C827.551 46.888 829.135 53.32 829.135 60.52ZM815.599 57.784C815.599 52.792 814.495 48.52 812.287 44.968C810.079 41.32 807.055 38.584 803.215 36.76C799.471 34.84 795.295 33.88 790.687 33.88C784.063 33.88 778.399 35.992 773.695 40.216C769.087 44.44 766.447 50.296 765.775 57.784H815.599Z" stroke="#E6E6E6" stroke-width="2" mask="url(#path-1-outside-1)"/>
<path d="M35.912 320.008C29.288 320.008 23.336 318.856 18.056 316.552C12.872 314.152 8.79201 310.888 5.81601 306.76C2.84001 302.536 1.30401 297.688 1.20801 292.216H15.176C15.656 296.92 17.576 300.904 20.936 304.168C24.392 307.336 29.384 308.92 35.912 308.92C42.152 308.92 47.048 307.384 50.6 304.312C54.248 301.144 56.072 297.112 56.072 292.216C56.072 288.376 55.016 285.256 52.904 282.856C50.792 280.456 48.152 278.632 44.984 277.384C41.816 276.136 37.544 274.792 32.168 273.352C25.544 271.624 20.216 269.896 16.184 268.168C12.248 266.44 8.84001 263.752 5.96001 260.104C3.17601 256.36 1.78401 251.368 1.78401 245.128C1.78401 239.656 3.17601 234.808 5.96001 230.584C8.74401 226.36 12.632 223.096 17.624 220.792C22.712 218.488 28.52 217.336 35.048 217.336C44.456 217.336 52.136 219.688 58.088 224.392C64.136 229.096 67.544 235.336 68.312 243.112H53.912C53.432 239.272 51.416 235.912 47.864 233.032C44.312 230.056 39.608 228.568 33.752 228.568C28.28 228.568 23.816 230.008 20.36 232.888C16.904 235.672 15.176 239.608 15.176 244.696C15.176 248.344 16.184 251.32 18.2 253.624C20.312 255.928 22.856 257.704 25.832 258.952C28.904 260.104 33.176 261.448 38.648 262.984C45.272 264.808 50.6 266.632 54.632 268.456C58.664 270.184 62.12 272.92 65 276.664C67.88 280.312 69.32 285.304 69.32 291.64C69.32 296.536 68.024 301.144 65.432 305.464C62.84 309.784 59 313.288 53.912 315.976C48.824 318.664 42.824 320.008 35.912 320.008Z" stroke="#E6E6E6" stroke-width="2" mask="url(#path-1-outside-1)"/>
<path d="M123.02 320.296C115.628 320.296 108.908 318.616 102.86 315.256C96.9076 311.896 92.2036 307.144 88.7476 301C85.3876 294.76 83.7076 287.56 83.7076 279.4C83.7076 271.336 85.4356 264.232 88.8916 258.088C92.4436 251.848 97.2436 247.096 103.292 243.832C109.34 240.472 116.108 238.792 123.596 238.792C131.084 238.792 137.852 240.472 143.9 243.832C149.948 247.096 154.7 251.8 158.156 257.944C161.708 264.088 163.484 271.24 163.484 279.4C163.484 287.56 161.66 294.76 158.012 301C154.46 307.144 149.612 311.896 143.468 315.256C137.324 318.616 130.508 320.296 123.02 320.296ZM123.02 308.776C127.724 308.776 132.14 307.672 136.268 305.464C140.396 303.256 143.708 299.944 146.204 295.528C148.796 291.112 150.092 285.736 150.092 279.4C150.092 273.064 148.844 267.688 146.348 263.272C143.852 258.856 140.588 255.592 136.556 253.48C132.524 251.272 128.156 250.168 123.452 250.168C118.652 250.168 114.236 251.272 110.204 253.48C106.268 255.592 103.1 258.856 100.7 263.272C98.2996 267.688 97.0996 273.064 97.0996 279.4C97.0996 285.832 98.2516 291.256 100.556 295.672C102.956 300.088 106.124 303.4 110.06 305.608C113.996 307.72 118.316 308.776 123.02 308.776Z" stroke="#E6E6E6" stroke-width="2" mask="url(#path-1-outside-1)"/>
<path d="M275.609 238.648C281.753 238.648 287.225 239.944 292.025 242.536C296.825 245.032 300.617 248.824 303.401 253.912C306.185 259 307.577 265.192 307.577 272.488V319H294.617V274.36C294.617 266.488 292.649 260.488 288.713 256.36C284.873 252.136 279.641 250.024 273.017 250.024C266.201 250.024 260.777 252.232 256.745 256.648C252.713 260.968 250.697 267.256 250.697 275.512V319H237.737V274.36C237.737 266.488 235.769 260.488 231.833 256.36C227.993 252.136 222.761 250.024 216.137 250.024C209.321 250.024 203.897 252.232 199.865 256.648C195.833 260.968 193.817 267.256 193.817 275.512V319H180.713V240.088H193.817V251.464C196.409 247.336 199.865 244.168 204.185 241.96C208.601 239.752 213.449 238.648 218.729 238.648C225.353 238.648 231.209 240.136 236.297 243.112C241.385 246.088 245.177 250.456 247.673 256.216C249.881 250.648 253.529 246.328 258.617 243.256C263.705 240.184 269.369 238.648 275.609 238.648Z" stroke="#E6E6E6" stroke-width="2" mask="url(#path-1-outside-1)"/>
<path d="M401.072 276.52C401.072 279.016 400.928 281.656 400.64 284.44H337.568C338.048 292.216 340.688 298.312 345.488 302.728C350.384 307.048 356.288 309.208 363.2 309.208C368.864 309.208 373.568 307.912 377.312 305.32C381.152 302.632 383.84 299.08 385.376 294.664H399.488C397.376 302.248 393.152 308.44 386.816 313.24C380.48 317.944 372.608 320.296 363.2 320.296C355.712 320.296 348.992 318.616 343.04 315.256C337.184 311.896 332.576 307.144 329.216 301C325.856 294.76 324.176 287.56 324.176 279.4C324.176 271.24 325.808 264.088 329.072 257.944C332.336 251.8 336.896 247.096 342.752 243.832C348.704 240.472 355.52 238.792 363.2 238.792C370.688 238.792 377.312 240.424 383.072 243.688C388.832 246.952 393.248 251.464 396.32 257.224C399.488 262.888 401.072 269.32 401.072 276.52ZM387.536 273.784C387.536 268.792 386.432 264.52 384.224 260.968C382.016 257.32 378.992 254.584 375.152 252.76C371.408 250.84 367.232 249.88 362.624 249.88C356 249.88 350.336 251.992 345.632 256.216C341.024 260.44 338.384 266.296 337.712 273.784H387.536Z" stroke="#E6E6E6" stroke-width="2" mask="url(#path-1-outside-1)"/>
<path d="M434.353 250.888V297.4C434.353 301.24 435.169 303.976 436.801 305.608C438.433 307.144 441.265 307.912 445.297 307.912H454.945V319H443.137C435.841 319 430.369 317.32 426.721 313.96C423.073 310.6 421.249 305.08 421.249 297.4V250.888H411.025V240.088H421.249V220.216H434.353V240.088H454.945V250.888H434.353Z" stroke="#E6E6E6" stroke-width="2" mask="url(#path-1-outside-1)"/>
<path d="M509.99 238.648C515.942 238.648 521.318 239.944 526.118 242.536C530.918 245.032 534.662 248.824 537.35 253.912C540.134 259 541.526 265.192 541.526 272.488V319H528.566V274.36C528.566 266.488 526.598 260.488 522.662 256.36C518.726 252.136 513.35 250.024 506.534 250.024C499.622 250.024 494.102 252.184 489.974 256.504C485.942 260.824 483.926 267.112 483.926 275.368V319H470.822V212.44H483.926V251.32C486.518 247.288 490.07 244.168 494.582 241.96C499.19 239.752 504.326 238.648 509.99 238.648Z" stroke="#E6E6E6" stroke-width="2" mask="url(#path-1-outside-1)"/>
<path d="M569.7 227.272C567.204 227.272 565.092 226.408 563.364 224.68C561.636 222.952 560.772 220.84 560.772 218.344C560.772 215.848 561.636 213.736 563.364 212.008C565.092 210.28 567.204 209.416 569.7 209.416C572.1 209.416 574.116 210.28 575.748 212.008C577.476 213.736 578.34 215.848 578.34 218.344C578.34 220.84 577.476 222.952 575.748 224.68C574.116 226.408 572.1 227.272 569.7 227.272ZM576.036 240.088V319H562.932V240.088H576.036Z" stroke="#E6E6E6" stroke-width="2" mask="url(#path-1-outside-1)"/>
<path d="M636.817 238.648C646.417 238.648 654.193 241.576 660.145 247.432C666.097 253.192 669.073 261.544 669.073 272.488V319H656.113V274.36C656.113 266.488 654.145 260.488 650.209 256.36C646.273 252.136 640.897 250.024 634.081 250.024C627.169 250.024 621.649 252.184 617.521 256.504C613.489 260.824 611.473 267.112 611.473 275.368V319H598.369V240.088H611.473V251.32C614.065 247.288 617.569 244.168 621.985 241.96C626.497 239.752 631.441 238.648 636.817 238.648Z" stroke="#E6E6E6" stroke-width="2" mask="url(#path-1-outside-1)"/>
<path d="M723.023 238.792C729.839 238.792 735.791 240.28 740.879 243.256C746.063 246.232 749.903 249.976 752.399 254.488V240.088H765.647V320.728C765.647 327.928 764.111 334.312 761.039 339.88C757.967 345.544 753.551 349.96 747.791 353.128C742.127 356.296 735.503 357.88 727.919 357.88C717.551 357.88 708.911 355.432 701.999 350.536C695.087 345.64 691.007 338.968 689.759 330.52H702.719C704.159 335.32 707.135 339.16 711.647 342.04C716.159 345.016 721.583 346.504 727.919 346.504C735.119 346.504 740.975 344.248 745.487 339.736C750.095 335.224 752.399 328.888 752.399 320.728V304.168C749.807 308.776 745.967 312.616 740.879 315.688C735.791 318.76 729.839 320.296 723.023 320.296C716.015 320.296 709.631 318.568 703.871 315.112C698.207 311.656 693.743 306.808 690.479 300.568C687.215 294.328 685.583 287.224 685.583 279.256C685.583 271.192 687.215 264.136 690.479 258.088C693.743 251.944 698.207 247.192 703.871 243.832C709.631 240.472 716.015 238.792 723.023 238.792ZM752.399 279.4C752.399 273.448 751.199 268.264 748.799 263.848C746.399 259.432 743.135 256.072 739.007 253.768C734.975 251.368 730.511 250.168 725.615 250.168C720.719 250.168 716.255 251.32 712.223 253.624C708.191 255.928 704.975 259.288 702.575 263.704C700.175 268.12 698.975 273.304 698.975 279.256C698.975 285.304 700.175 290.584 702.575 295.096C704.975 299.512 708.191 302.92 712.223 305.32C716.255 307.624 720.719 308.776 725.615 308.776C730.511 308.776 734.975 307.624 739.007 305.32C743.135 302.92 746.399 299.512 748.799 295.096C751.199 290.584 752.399 285.352 752.399 279.4Z" stroke="#E6E6E6" stroke-width="2" mask="url(#path-1-outside-1)"/>
<path d="M804.783 218.632L803.199 290.632H792.255L790.671 218.632H804.783ZM798.303 319.864C795.807 319.864 793.695 319 791.967 317.272C790.239 315.544 789.375 313.432 789.375 310.936C789.375 308.44 790.239 306.328 791.967 304.6C793.695 302.872 795.807 302.008 798.303 302.008C800.703 302.008 802.719 302.872 804.351 304.6C806.079 306.328 806.943 308.44 806.943 310.936C806.943 313.432 806.079 315.544 804.351 317.272C802.719 319 800.703 319.864 798.303 319.864Z" stroke="#E6E6E6" stroke-width="2" mask="url(#path-1-outside-1)"/>
</svg>
