<svg xmlns="http://www.w3.org/2000/svg" xmlns:xlink="http://www.w3.org/1999/xlink" width="227" height="255" viewBox="0 0 227 255">
  <defs>
    <clipPath id="clip-path">
      <rect width="227" height="255" fill="none"/>
    </clipPath>
  </defs>
  <g id="Repeat_Grid_1" data-name="Repeat Grid 1" clip-path="url(#clip-path)">
    <g transform="translate(-42 -194)">
      <circle id="Ellipse_3" data-name="Ellipse 3" cx="5" cy="5" r="5" transform="translate(42 194)" fill="#b9b6b6"/>
    </g>
    <g transform="translate(-12 -194)">
      <circle id="Ellipse_3-2" data-name="Ellipse 3" cx="5" cy="5" r="5" transform="translate(42 194)" fill="#b9b6b6"/>
    </g>
    <g transform="translate(18 -194)">
      <circle id="Ellipse_3-3" data-name="Ellipse 3" cx="5" cy="5" r="5" transform="translate(42 194)" fill="#b9b6b6"/>
    </g>
    <g transform="translate(48 -194)">
      <circle id="Ellipse_3-4" data-name="Ellipse 3" cx="5" cy="5" r="5" transform="translate(42 194)" fill="#b9b6b6"/>
    </g>
    <g transform="translate(78 -194)">
      <circle id="Ellipse_3-5" data-name="Ellipse 3" cx="5" cy="5" r="5" transform="translate(42 194)" fill="#b9b6b6"/>
    </g>
    <g transform="translate(108 -194)">
      <circle id="Ellipse_3-6" data-name="Ellipse 3" cx="5" cy="5" r="5" transform="translate(42 194)" fill="#b9b6b6"/>
    </g>
    <g transform="translate(138 -194)">
      <circle id="Ellipse_3-7" data-name="Ellipse 3" cx="5" cy="5" r="5" transform="translate(42 194)" fill="#b9b6b6"/>
    </g>
    <g transform="translate(168 -194)">
      <circle id="Ellipse_3-8" data-name="Ellipse 3" cx="5" cy="5" r="5" transform="translate(42 194)" fill="#b9b6b6"/>
    </g>
    <g transform="translate(-42 -164)">
      <circle id="Ellipse_3-9" data-name="Ellipse 3" cx="5" cy="5" r="5" transform="translate(42 194)" fill="#b9b6b6"/>
    </g>
    <g transform="translate(-12 -164)">
      <circle id="Ellipse_3-10" data-name="Ellipse 3" cx="5" cy="5" r="5" transform="translate(42 194)" fill="#b9b6b6"/>
    </g>
    <g transform="translate(18 -164)">
      <circle id="Ellipse_3-11" data-name="Ellipse 3" cx="5" cy="5" r="5" transform="translate(42 194)" fill="#b9b6b6"/>
    </g>
    <g transform="translate(48 -164)">
      <circle id="Ellipse_3-12" data-name="Ellipse 3" cx="5" cy="5" r="5" transform="translate(42 194)" fill="#b9b6b6"/>
    </g>
    <g transform="translate(78 -164)">
      <circle id="Ellipse_3-13" data-name="Ellipse 3" cx="5" cy="5" r="5" transform="translate(42 194)" fill="#b9b6b6"/>
    </g>
    <g transform="translate(108 -164)">
      <circle id="Ellipse_3-14" data-name="Ellipse 3" cx="5" cy="5" r="5" transform="translate(42 194)" fill="#b9b6b6"/>
    </g>
    <g transform="translate(138 -164)">
      <circle id="Ellipse_3-15" data-name="Ellipse 3" cx="5" cy="5" r="5" transform="translate(42 194)" fill="#b9b6b6"/>
    </g>
    <g transform="translate(168 -164)">
      <circle id="Ellipse_3-16" data-name="Ellipse 3" cx="5" cy="5" r="5" transform="translate(42 194)" fill="#b9b6b6"/>
    </g>
    <g transform="translate(-42 -134)">
      <circle id="Ellipse_3-17" data-name="Ellipse 3" cx="5" cy="5" r="5" transform="translate(42 194)" fill="#b9b6b6"/>
    </g>
    <g transform="translate(-12 -134)">
      <circle id="Ellipse_3-18" data-name="Ellipse 3" cx="5" cy="5" r="5" transform="translate(42 194)" fill="#b9b6b6"/>
    </g>
    <g transform="translate(18 -134)">
      <circle id="Ellipse_3-19" data-name="Ellipse 3" cx="5" cy="5" r="5" transform="translate(42 194)" fill="#b9b6b6"/>
    </g>
    <g transform="translate(48 -134)">
      <circle id="Ellipse_3-20" data-name="Ellipse 3" cx="5" cy="5" r="5" transform="translate(42 194)" fill="#b9b6b6"/>
    </g>
    <g transform="translate(78 -134)">
      <circle id="Ellipse_3-21" data-name="Ellipse 3" cx="5" cy="5" r="5" transform="translate(42 194)" fill="#b9b6b6"/>
    </g>
    <g transform="translate(108 -134)">
      <circle id="Ellipse_3-22" data-name="Ellipse 3" cx="5" cy="5" r="5" transform="translate(42 194)" fill="#b9b6b6"/>
    </g>
    <g transform="translate(138 -134)">
      <circle id="Ellipse_3-23" data-name="Ellipse 3" cx="5" cy="5" r="5" transform="translate(42 194)" fill="#b9b6b6"/>
    </g>
    <g transform="translate(168 -134)">
      <circle id="Ellipse_3-24" data-name="Ellipse 3" cx="5" cy="5" r="5" transform="translate(42 194)" fill="#b9b6b6"/>
    </g>
    <g transform="translate(-42 -104)">
      <circle id="Ellipse_3-25" data-name="Ellipse 3" cx="5" cy="5" r="5" transform="translate(42 194)" fill="#b9b6b6"/>
    </g>
    <g transform="translate(-12 -104)">
      <circle id="Ellipse_3-26" data-name="Ellipse 3" cx="5" cy="5" r="5" transform="translate(42 194)" fill="#b9b6b6"/>
    </g>
    <g transform="translate(18 -104)">
      <circle id="Ellipse_3-27" data-name="Ellipse 3" cx="5" cy="5" r="5" transform="translate(42 194)" fill="#b9b6b6"/>
    </g>
    <g transform="translate(48 -104)">
      <circle id="Ellipse_3-28" data-name="Ellipse 3" cx="5" cy="5" r="5" transform="translate(42 194)" fill="#b9b6b6"/>
    </g>
    <g transform="translate(78 -104)">
      <circle id="Ellipse_3-29" data-name="Ellipse 3" cx="5" cy="5" r="5" transform="translate(42 194)" fill="#b9b6b6"/>
    </g>
    <g transform="translate(108 -104)">
      <circle id="Ellipse_3-30" data-name="Ellipse 3" cx="5" cy="5" r="5" transform="translate(42 194)" fill="#b9b6b6"/>
    </g>
    <g transform="translate(138 -104)">
      <circle id="Ellipse_3-31" data-name="Ellipse 3" cx="5" cy="5" r="5" transform="translate(42 194)" fill="#b9b6b6"/>
    </g>
    <g transform="translate(168 -104)">
      <circle id="Ellipse_3-32" data-name="Ellipse 3" cx="5" cy="5" r="5" transform="translate(42 194)" fill="#b9b6b6"/>
    </g>
    <g transform="translate(-42 -74)">
      <circle id="Ellipse_3-33" data-name="Ellipse 3" cx="5" cy="5" r="5" transform="translate(42 194)" fill="#b9b6b6"/>
    </g>
    <g transform="translate(-12 -74)">
      <circle id="Ellipse_3-34" data-name="Ellipse 3" cx="5" cy="5" r="5" transform="translate(42 194)" fill="#b9b6b6"/>
    </g>
    <g transform="translate(18 -74)">
      <circle id="Ellipse_3-35" data-name="Ellipse 3" cx="5" cy="5" r="5" transform="translate(42 194)" fill="#b9b6b6"/>
    </g>
    <g transform="translate(48 -74)">
      <circle id="Ellipse_3-36" data-name="Ellipse 3" cx="5" cy="5" r="5" transform="translate(42 194)" fill="#b9b6b6"/>
    </g>
    <g transform="translate(78 -74)">
      <circle id="Ellipse_3-37" data-name="Ellipse 3" cx="5" cy="5" r="5" transform="translate(42 194)" fill="#b9b6b6"/>
    </g>
    <g transform="translate(108 -74)">
      <circle id="Ellipse_3-38" data-name="Ellipse 3" cx="5" cy="5" r="5" transform="translate(42 194)" fill="#b9b6b6"/>
    </g>
    <g transform="translate(138 -74)">
      <circle id="Ellipse_3-39" data-name="Ellipse 3" cx="5" cy="5" r="5" transform="translate(42 194)" fill="#b9b6b6"/>
    </g>
    <g transform="translate(168 -74)">
      <circle id="Ellipse_3-40" data-name="Ellipse 3" cx="5" cy="5" r="5" transform="translate(42 194)" fill="#b9b6b6"/>
    </g>
    <g transform="translate(-42 -44)">
      <circle id="Ellipse_3-41" data-name="Ellipse 3" cx="5" cy="5" r="5" transform="translate(42 194)" fill="#b9b6b6"/>
    </g>
    <g transform="translate(-12 -44)">
      <circle id="Ellipse_3-42" data-name="Ellipse 3" cx="5" cy="5" r="5" transform="translate(42 194)" fill="#b9b6b6"/>
    </g>
    <g transform="translate(18 -44)">
      <circle id="Ellipse_3-43" data-name="Ellipse 3" cx="5" cy="5" r="5" transform="translate(42 194)" fill="#b9b6b6"/>
    </g>
    <g transform="translate(48 -44)">
      <circle id="Ellipse_3-44" data-name="Ellipse 3" cx="5" cy="5" r="5" transform="translate(42 194)" fill="#b9b6b6"/>
    </g>
    <g transform="translate(78 -44)">
      <circle id="Ellipse_3-45" data-name="Ellipse 3" cx="5" cy="5" r="5" transform="translate(42 194)" fill="#b9b6b6"/>
    </g>
    <g transform="translate(108 -44)">
      <circle id="Ellipse_3-46" data-name="Ellipse 3" cx="5" cy="5" r="5" transform="translate(42 194)" fill="#b9b6b6"/>
    </g>
    <g transform="translate(138 -44)">
      <circle id="Ellipse_3-47" data-name="Ellipse 3" cx="5" cy="5" r="5" transform="translate(42 194)" fill="#b9b6b6"/>
    </g>
    <g transform="translate(168 -44)">
      <circle id="Ellipse_3-48" data-name="Ellipse 3" cx="5" cy="5" r="5" transform="translate(42 194)" fill="#b9b6b6"/>
    </g>
    <g transform="translate(-42 -14)">
      <circle id="Ellipse_3-49" data-name="Ellipse 3" cx="5" cy="5" r="5" transform="translate(42 194)" fill="#b9b6b6"/>
    </g>
    <g transform="translate(-12 -14)">
      <circle id="Ellipse_3-50" data-name="Ellipse 3" cx="5" cy="5" r="5" transform="translate(42 194)" fill="#b9b6b6"/>
    </g>
    <g transform="translate(18 -14)">
      <circle id="Ellipse_3-51" data-name="Ellipse 3" cx="5" cy="5" r="5" transform="translate(42 194)" fill="#b9b6b6"/>
    </g>
    <g transform="translate(48 -14)">
      <circle id="Ellipse_3-52" data-name="Ellipse 3" cx="5" cy="5" r="5" transform="translate(42 194)" fill="#b9b6b6"/>
    </g>
    <g transform="translate(78 -14)">
      <circle id="Ellipse_3-53" data-name="Ellipse 3" cx="5" cy="5" r="5" transform="translate(42 194)" fill="#b9b6b6"/>
    </g>
    <g transform="translate(108 -14)">
      <circle id="Ellipse_3-54" data-name="Ellipse 3" cx="5" cy="5" r="5" transform="translate(42 194)" fill="#b9b6b6"/>
    </g>
    <g transform="translate(138 -14)">
      <circle id="Ellipse_3-55" data-name="Ellipse 3" cx="5" cy="5" r="5" transform="translate(42 194)" fill="#b9b6b6"/>
    </g>
    <g transform="translate(168 -14)">
      <circle id="Ellipse_3-56" data-name="Ellipse 3" cx="5" cy="5" r="5" transform="translate(42 194)" fill="#b9b6b6"/>
    </g>
    <g transform="translate(-42 16)">
      <circle id="Ellipse_3-57" data-name="Ellipse 3" cx="5" cy="5" r="5" transform="translate(42 194)" fill="#b9b6b6"/>
    </g>
    <g transform="translate(-12 16)">
      <circle id="Ellipse_3-58" data-name="Ellipse 3" cx="5" cy="5" r="5" transform="translate(42 194)" fill="#b9b6b6"/>
    </g>
    <g transform="translate(18 16)">
      <circle id="Ellipse_3-59" data-name="Ellipse 3" cx="5" cy="5" r="5" transform="translate(42 194)" fill="#b9b6b6"/>
    </g>
    <g transform="translate(48 16)">
      <circle id="Ellipse_3-60" data-name="Ellipse 3" cx="5" cy="5" r="5" transform="translate(42 194)" fill="#b9b6b6"/>
    </g>
    <g transform="translate(78 16)">
      <circle id="Ellipse_3-61" data-name="Ellipse 3" cx="5" cy="5" r="5" transform="translate(42 194)" fill="#b9b6b6"/>
    </g>
    <g transform="translate(108 16)">
      <circle id="Ellipse_3-62" data-name="Ellipse 3" cx="5" cy="5" r="5" transform="translate(42 194)" fill="#b9b6b6"/>
    </g>
    <g transform="translate(138 16)">
      <circle id="Ellipse_3-63" data-name="Ellipse 3" cx="5" cy="5" r="5" transform="translate(42 194)" fill="#b9b6b6"/>
    </g>
    <g transform="translate(168 16)">
      <circle id="Ellipse_3-64" data-name="Ellipse 3" cx="5" cy="5" r="5" transform="translate(42 194)" fill="#b9b6b6"/>
    </g>
    <g transform="translate(-42 46)">
      <circle id="Ellipse_3-65" data-name="Ellipse 3" cx="5" cy="5" r="5" transform="translate(42 194)" fill="#b9b6b6"/>
    </g>
    <g transform="translate(-12 46)">
      <circle id="Ellipse_3-66" data-name="Ellipse 3" cx="5" cy="5" r="5" transform="translate(42 194)" fill="#b9b6b6"/>
    </g>
    <g transform="translate(18 46)">
      <circle id="Ellipse_3-67" data-name="Ellipse 3" cx="5" cy="5" r="5" transform="translate(42 194)" fill="#b9b6b6"/>
    </g>
    <g transform="translate(48 46)">
      <circle id="Ellipse_3-68" data-name="Ellipse 3" cx="5" cy="5" r="5" transform="translate(42 194)" fill="#b9b6b6"/>
    </g>
    <g transform="translate(78 46)">
      <circle id="Ellipse_3-69" data-name="Ellipse 3" cx="5" cy="5" r="5" transform="translate(42 194)" fill="#b9b6b6"/>
    </g>
    <g transform="translate(108 46)">
      <circle id="Ellipse_3-70" data-name="Ellipse 3" cx="5" cy="5" r="5" transform="translate(42 194)" fill="#b9b6b6"/>
    </g>
    <g transform="translate(138 46)">
      <circle id="Ellipse_3-71" data-name="Ellipse 3" cx="5" cy="5" r="5" transform="translate(42 194)" fill="#b9b6b6"/>
    </g>
    <g transform="translate(168 46)">
      <circle id="Ellipse_3-72" data-name="Ellipse 3" cx="5" cy="5" r="5" transform="translate(42 194)" fill="#b9b6b6"/>
    </g>
  </g>
</svg>
