<svg xmlns="http://www.w3.org/2000/svg" xmlns:xlink="http://www.w3.org/1999/xlink" viewBox="0 0 576 576"><defs><style>.cls-1{fill:none;}.cls-2{isolation:isolate;}.cls-3{fill:#58595b;}.cls-4{fill:#007dac;}.cls-5{mix-blend-mode:hue;}.cls-6{clip-path:url(#clip-path);}.cls-7{fill:#f68b1f;}.cls-8{fill:#5c2d91;}.cls-9{fill:#bb0062;}.cls-10{fill:#9e0763;}.cls-11{fill:#ffd400;}.cls-12{fill:#ed1c24;}</style><clipPath id="clip-path"><path class="cls-1" d="M210.05,243.2c.57,18.6-1.72,46.35,25.18,46.35,28,0,29.75-24,29.75-49.21V100.72H291.3V256.08c0,11.15-.28,55.5-56.93,55.5-11.45,0-33.48-4-43.49-20.31-8.3-13.74-8.3-31.47-8.3-48.07Z"/></clipPath></defs><g class="cls-2"><g id="Layer_1" data-name="Layer 1"><path class="cls-3" d="M49.22,403.42c.15,5-.46,12.41,6.74,12.41,7.51,0,8-6.44,8-13.18V365.27h7v41.6c0,3-.07,14.86-15.24,14.86-3.07,0-9-1.08-11.64-5.44-2.22-3.68-2.22-8.43-2.22-12.87Z"/><path class="cls-3" d="M83.84,400.35V382.2c0-11,5.67-18.08,17.39-18.08s17.39,7.05,17.39,18.08v18.15c0,15.32-5.67,21.38-17.39,21.38S83.84,415.67,83.84,400.35Zm27.58.31V382c0-11.57-8-12-10.19-12S91,370.4,91,382v18.69c0,12.1,3.53,15.17,10.19,15.17S111.42,412.76,111.42,400.66Z"/><path class="cls-3" d="M136.32,404.11v1.61c0,7.5,4.75,9.88,9.27,9.88,5.59,0,9.88-2.38,9.88-9,0-12.26-24.82-10.88-24.82-27.51,0-9.8,7-15,16.24-15,10.11,0,15.78,4.9,15.32,16.16h-7.35c.07-6-1.84-10-8.51-10-4.21,0-8.5,2.14-8.5,8.12,0,12.18,24.82,10.42,24.82,28,0,11.64-8,15.4-17.16,15.4-16.32.15-16.32-12.34-16.16-17.62Z"/><path class="cls-3" d="M173.93,420.58V365.27h7v23.9h19.38v-23.9h7v55.31h-7V395.3H181v25.28Z"/><path class="cls-3" d="M239.14,420.58V365.27h18c7.66,0,10.26,2.6,12.33,5.67a14.72,14.72,0,0,1,2.22,7.35c0,6.9-2.37,11.49-9.5,13.1v.38c7.89.92,11.34,5.67,11.34,13.26,0,14.17-10.34,15.55-16.62,15.55Zm7-32h10.27c5.51-.08,8.19-3.45,8.19-8.81,0-4.6-2.6-8.35-8.5-8.35h-10Zm0,25.89h10c7.51,0,10.19-5.36,10.19-9.42,0-8.81-5.44-10.35-12.64-10.35h-7.51Z"/><path class="cls-3" d="M285,365.27h7.05v35.39c0,12.1,3.68,15.17,10.34,15.17s10.34-3.07,10.34-15.17V365.27h7.05v35.08c0,15.32-5.67,21.38-17.39,21.38S285,415.67,285,400.35Z"/><path class="cls-3" d="M339,395.14v25.44H331.9V365.27H351c9.8,0,13.25,6.89,13.25,13.79,0,6.51-3.6,11.49-10.11,12.64v.15c6.36,1,8.65,3.14,9,14.25.07,2.37.84,11,1.91,14.48h-7.35c-2-3.83-1.53-11-2.15-18.39-.53-6.74-6-7.05-8.35-7.05Zm0-6.12h10.57c5.06,0,7.51-4.37,7.51-9.2,0-4-2-8.42-7.43-8.42H339Z"/><path class="cls-3" d="M401.15,380.05c0-6.51-2.68-10-9.8-10-2.22,0-10.19.38-10.19,12v18.69c0,12.1,3.52,15.17,10.19,15.17,5,0,8.42-1.38,9.88-2.45V396.83H391V390.7h17.24v26.89a34.11,34.11,0,0,1-16.93,4.14c-11.72,0-17.39-6.06-17.39-21.38V382.2c0-11,5.67-18.08,17.39-18.08,11.95,0,17.62,4.37,17.16,15.93Z"/><path class="cls-3" d="M421.45,420.58V365.27H450v6.13H428.5v17.77h19.92v6.13H428.5v19.15h21.91v6.13Z"/><path class="cls-3" d="M465.19,404.11v1.61c0,7.5,4.75,9.88,9.27,9.88,5.6,0,9.88-2.38,9.88-9,0-12.26-24.81-10.88-24.81-27.51,0-9.8,7-15,16.23-15,10.12,0,15.78,4.9,15.32,16.16h-7.35c.08-6-1.84-10-8.5-10-4.22,0-8.51,2.14-8.51,8.12,0,12.18,24.82,10.42,24.82,28,0,11.64-8,15.4-17.15,15.4-16.32.15-16.32-12.34-16.17-17.62Z"/><path class="cls-3" d="M507.78,404.11v1.61c0,7.5,4.75,9.88,9.27,9.88,5.6,0,9.89-2.38,9.89-9,0-12.26-24.82-10.88-24.82-27.51,0-9.8,7-15,16.23-15,10.12,0,15.78,4.9,15.33,16.16h-7.36c.08-6-1.84-10-8.5-10-4.22,0-8.5,2.14-8.5,8.12,0,12.18,24.81,10.42,24.81,28,0,11.64-8,15.4-17.15,15.4-16.32.15-16.32-12.34-16.17-17.62Z"/><path class="cls-4" d="M143.43,443.51h4.23l5.86,27h.09l6.25-27H165l5.64,27h.09l6.34-27h4.14L173,474.64h-4.83l-5.9-27h-.09l-6.29,27H151Z"/><path class="cls-4" d="M183.92,474.64V443.51h16V447H187.88v10h11.21v3.45H187.88v10.78h12.34v3.45Z"/><path class="cls-4" d="M204.79,474.64V443.51h10.13c4.31,0,5.77,1.47,6.94,3.19a8.43,8.43,0,0,1,1.25,4.14c0,3.88-1.34,6.46-5.35,7.37v.22c4.44.51,6.38,3.19,6.38,7.45,0,8-5.82,8.76-9.35,8.76Zm4-18h5.78c3.1,0,4.61-1.93,4.61-4.95,0-2.59-1.47-4.7-4.78-4.7h-5.61Zm0,14.58h5.61c4.22,0,5.73-3,5.73-5.31,0-4.95-3.06-5.82-7.11-5.82h-4.23Z"/><path class="cls-4" d="M238.25,443.51h9.57c4,0,6.81,1.42,8.36,4.74,1.25,2.63,1.38,8.84,1.38,9.83,0,6.64-.61,10.48-1.9,12.55-1.68,2.67-4.83,4-10.26,4h-7.15Zm4,27.68H246c5.52,0,7.55-2.07,7.55-9.32v-6.29c0-6.3-1.94-8.62-6.08-8.62h-5.22Z"/><path class="cls-4" d="M263.43,474.64V443.51h16V447H267.39v10H278.6v3.45H267.39v10.78h12.33v3.45Z"/><path class="cls-4" d="M294.72,474.64H290l-9-31.13h4.31l7.12,27.38h.08l7.29-27.38h4.05Z"/><path class="cls-4" d="M306.8,474.64V443.51h16V447H310.77v10H322v3.45H310.77v10.78H323.1v3.45Z"/><path class="cls-4" d="M327.28,474.64V443.51h4v27.68h11.42v3.45Z"/><path class="cls-4" d="M345.22,463.25V453c0-6.21,3.19-10.18,9.78-10.18s9.79,4,9.79,10.18v10.21c0,8.63-3.19,12-9.79,12S345.22,471.88,345.22,463.25Zm15.52.18V452.91c0-6.51-4.49-6.73-5.74-6.73s-5.73.22-5.73,6.73v10.52c0,6.81,2,8.53,5.73,8.53S360.74,470.24,360.74,463.43Z"/><path class="cls-4" d="M371.13,474.64V443.51h9.23c4.18,0,8.66,1.55,8.66,8.88,0,7.07-5.52,8.54-8.71,8.54H375.1v13.71Zm4-17.16h4.35c1.64,0,5.52-.43,5.52-5.31s-3.54-5.21-4.4-5.21H375.1Z"/><path class="cls-4" d="M393.51,474.64V443.51h16V447H397.47v10h11.21v3.45H397.47v10.78H409.8v3.45Z"/><path class="cls-4" d="M417.87,460.32v14.32h-4V443.51h10.74c5.52,0,7.45,3.88,7.45,7.76,0,3.66-2,6.47-5.68,7.11v.09c3.57.56,4.87,1.77,5.08,8a48.34,48.34,0,0,0,1.08,8.15h-4.14c-1.12-2.16-.86-6.21-1.2-10.35-.31-3.79-3.37-4-4.71-4Zm0-3.45h5.95c2.84,0,4.22-2.46,4.22-5.17,0-2.24-1.12-4.74-4.18-4.74h-6Z"/><g class="cls-5"><path class="cls-4" d="M260.61,307.29,267,236.23l-2-135.51h67.23c28.61,0,38.34,9.73,46.06,21.17a55.27,55.27,0,0,1,8.3,27.47c0,25.75-8.87,42.92-35.48,48.93v1.43c29.47,3.43,42.35,21.17,42.35,49.49,0,52.93-38.63,58.08-62.09,58.08ZM291.28,187.7h38.34c20.6-.29,30.61-12.88,30.61-32.9,0-17.17-9.73-31.19-31.76-31.19H291.28Zm0,96.71h37.19c28,0,38-20,38-35.2,0-32.9-20.31-38.62-47.2-38.62h-28Z"/></g><g class="cls-6"><polygon class="cls-7" points="264.08 99.86 292.4 135.32 292.4 99.8 264.08 99.86"/><polygon class="cls-4" points="292.63 135.32 264.35 150.78 264.31 99.86 292.63 135.32"/><polygon class="cls-8" points="292.4 135.32 292.63 189.68 263.8 150.78 292.4 135.32"/><polygon class="cls-9" points="263.8 177.1 292.09 188.94 263.8 150.78 263.8 177.1"/><polygon class="cls-10" points="264.31 228.65 280.1 183.69 264.35 177.1 264.31 228.65"/><polygon class="cls-11" points="292.63 188.94 292.63 228.65 280.1 183.69 292.63 188.94"/><polygon class="cls-12" points="264.18 228.53 292.47 228.53 280.1 183.65 264.18 228.53"/><polygon class="cls-7" points="264.42 228.28 292.74 263.75 292.74 228.22 264.42 228.28"/><polygon class="cls-4" points="292.97 263.75 264.69 279.2 264.65 228.28 292.97 263.75"/><polygon class="cls-8" points="292.74 263.75 292.74 317.36 264.45 279.2 292.74 263.75"/><polygon class="cls-9" points="257.64 296.28 254.6 265.77 282.8 303.99 257.64 296.28"/><polygon class="cls-10" points="285.81 318.54 245.65 292.88 234.99 312.63 285.81 318.54"/><polygon class="cls-11" points="282.88 304.05 244.91 292.43 284.23 317.57 282.88 304.05"/><polygon class="cls-12" points="257.86 296.38 255.92 268.16 212 283.57 257.86 296.38"/><polygon class="cls-7" points="236.42 244.01 264.74 279.47 264.74 243.95 236.42 244.01"/><polygon class="cls-4" points="245.89 293.05 231.99 322.13 202.18 280.85 245.89 293.05"/><polygon class="cls-8" points="211.67 242.23 186.02 289.31 179.44 242.28 211.67 242.23"/><polygon class="cls-7" points="178.08 298.46 224.47 311.4 202.18 280.83 178.08 298.46"/><polygon class="cls-11" points="191.88 278.56 210.86 243.68 200.43 289.25 191.88 278.56"/><polygon class="cls-12" points="200.42 289.24 191.87 278.56 196.2 308.74 200.42 289.24"/><polygon class="cls-10" points="212.97 234.45 202.35 280.89 212 283.57 212.97 234.45"/><polygon class="cls-8" points="212 283.57 212.32 266.97 224.62 287.12 212 283.57"/><polygon class="cls-10" points="191.87 278.56 186.45 288.54 194.58 297.06 191.87 278.56"/></g></g></g></svg>