<svg xmlns="http://www.w3.org/2000/svg" width="131.172" height="160.196" viewBox="0 0 131.172 160.196">
  <g id="Group_1" data-name="Group 1" transform="translate(-1647.414 -154.902)">
    <rect id="Rectangle_40" data-name="Rectangle 40" width="121" height="6" rx="3" transform="translate(1662.605 226.152) rotate(30)" fill="#e6e6e6"/>
    <rect id="Rectangle_41" data-name="Rectangle 41" width="148" height="6" rx="3" transform="translate(1650.414 203.402) rotate(30)" fill="#e6e6e6"/>
    <rect id="Rectangle_42" data-name="Rectangle 42" width="87" height="6" rx="3" transform="translate(1677.328 250.652) rotate(30)" fill="#e6e6e6"/>
    <rect id="Rectangle_43" data-name="Rectangle 43" width="59" height="6" rx="3" transform="translate(1689.452 273.652) rotate(30)" fill="#e6e6e6"/>
    <rect id="Rectangle_44" data-name="Rectangle 44" width="87" height="6" rx="3" transform="translate(1677.328 170.652) rotate(30)" fill="#e6e6e6"/>
    <rect id="Rectangle_45" data-name="Rectangle 45" width="59" height="6" rx="3" transform="translate(1689.452 161.652) rotate(30)" fill="#e6e6e6"/>
    <rect id="Rectangle_46" data-name="Rectangle 46" width="121" height="6" rx="3" transform="translate(1662.605 178.152) rotate(30)" fill="#e6e6e6"/>
    <rect id="Rectangle_47" data-name="Rectangle 47" width="141" height="6" rx="3" transform="translate(1653.945 189.152) rotate(30)" fill="#e6e6e6"/>
    <rect id="Rectangle_49" data-name="Rectangle 49" width="22" height="6" rx="3" transform="translate(1704.974 298.902) rotate(30)" fill="#e6e6e6"/>
    <rect id="Rectangle_53" data-name="Rectangle 53" width="22" height="6" rx="3" transform="translate(1704.974 154.902) rotate(30)" fill="#e6e6e6"/>
  </g>
</svg>
