<svg xmlns="http://www.w3.org/2000/svg" xmlns:xlink="http://www.w3.org/1999/xlink" width="700" height="700" viewBox="0 0 700 700"><defs><clipPath id="a"><rect width="700" height="700" fill="none"/></clipPath></defs><g clip-path="url(#a)"><g transform="translate(-42 -194)"><circle cx="5" cy="5" r="5" transform="translate(42 194)" fill="#b9b6b6"/></g><g transform="translate(8 -194)"><circle cx="5" cy="5" r="5" transform="translate(42 194)" fill="#b9b6b6"/></g><g transform="translate(58 -194)"><circle cx="5" cy="5" r="5" transform="translate(42 194)" fill="#b9b6b6"/></g><g transform="translate(108 -194)"><circle cx="5" cy="5" r="5" transform="translate(42 194)" fill="#b9b6b6"/></g><g transform="translate(158 -194)"><circle cx="5" cy="5" r="5" transform="translate(42 194)" fill="#b9b6b6"/></g><g transform="translate(208 -194)"><circle cx="5" cy="5" r="5" transform="translate(42 194)" fill="#b9b6b6"/></g><g transform="translate(258 -194)"><circle cx="5" cy="5" r="5" transform="translate(42 194)" fill="#b9b6b6"/></g><g transform="translate(308 -194)"><circle cx="5" cy="5" r="5" transform="translate(42 194)" fill="#b9b6b6"/></g><g transform="translate(358 -194)"><circle cx="5" cy="5" r="5" transform="translate(42 194)" fill="#b9b6b6"/></g><g transform="translate(408 -194)"><circle cx="5" cy="5" r="5" transform="translate(42 194)" fill="#b9b6b6"/></g><g transform="translate(458 -194)"><circle cx="5" cy="5" r="5" transform="translate(42 194)" fill="#b9b6b6"/></g><g transform="translate(508 -194)"><circle cx="5" cy="5" r="5" transform="translate(42 194)" fill="#b9b6b6"/></g><g transform="translate(558 -194)"><circle cx="5" cy="5" r="5" transform="translate(42 194)" fill="#b9b6b6"/></g><g transform="translate(608 -194)"><circle cx="5" cy="5" r="5" transform="translate(42 194)" fill="#b9b6b6"/></g><g transform="translate(-42 -144)"><circle cx="5" cy="5" r="5" transform="translate(42 194)" fill="#b9b6b6"/></g><g transform="translate(8 -144)"><circle cx="5" cy="5" r="5" transform="translate(42 194)" fill="#b9b6b6"/></g><g transform="translate(58 -144)"><circle cx="5" cy="5" r="5" transform="translate(42 194)" fill="#b9b6b6"/></g><g transform="translate(108 -144)"><circle cx="5" cy="5" r="5" transform="translate(42 194)" fill="#b9b6b6"/></g><g transform="translate(158 -144)"><circle cx="5" cy="5" r="5" transform="translate(42 194)" fill="#b9b6b6"/></g><g transform="translate(208 -144)"><circle cx="5" cy="5" r="5" transform="translate(42 194)" fill="#b9b6b6"/></g><g transform="translate(258 -144)"><circle cx="5" cy="5" r="5" transform="translate(42 194)" fill="#b9b6b6"/></g><g transform="translate(308 -144)"><circle cx="5" cy="5" r="5" transform="translate(42 194)" fill="#b9b6b6"/></g><g transform="translate(358 -144)"><circle cx="5" cy="5" r="5" transform="translate(42 194)" fill="#b9b6b6"/></g><g transform="translate(408 -144)"><circle cx="5" cy="5" r="5" transform="translate(42 194)" fill="#b9b6b6"/></g><g transform="translate(458 -144)"><circle cx="5" cy="5" r="5" transform="translate(42 194)" fill="#b9b6b6"/></g><g transform="translate(508 -144)"><circle cx="5" cy="5" r="5" transform="translate(42 194)" fill="#b9b6b6"/></g><g transform="translate(558 -144)"><circle cx="5" cy="5" r="5" transform="translate(42 194)" fill="#b9b6b6"/></g><g transform="translate(608 -144)"><circle cx="5" cy="5" r="5" transform="translate(42 194)" fill="#b9b6b6"/></g><g transform="translate(-42 -94)"><circle cx="5" cy="5" r="5" transform="translate(42 194)" fill="#b9b6b6"/></g><g transform="translate(8 -94)"><circle cx="5" cy="5" r="5" transform="translate(42 194)" fill="#b9b6b6"/></g><g transform="translate(58 -94)"><circle cx="5" cy="5" r="5" transform="translate(42 194)" fill="#b9b6b6"/></g><g transform="translate(108 -94)"><circle cx="5" cy="5" r="5" transform="translate(42 194)" fill="#b9b6b6"/></g><g transform="translate(158 -94)"><circle cx="5" cy="5" r="5" transform="translate(42 194)" fill="#b9b6b6"/></g><g transform="translate(208 -94)"><circle cx="5" cy="5" r="5" transform="translate(42 194)" fill="#b9b6b6"/></g><g transform="translate(258 -94)"><circle cx="5" cy="5" r="5" transform="translate(42 194)" fill="#b9b6b6"/></g><g transform="translate(308 -94)"><circle cx="5" cy="5" r="5" transform="translate(42 194)" fill="#b9b6b6"/></g><g transform="translate(358 -94)"><circle cx="5" cy="5" r="5" transform="translate(42 194)" fill="#b9b6b6"/></g><g transform="translate(408 -94)"><circle cx="5" cy="5" r="5" transform="translate(42 194)" fill="#b9b6b6"/></g><g transform="translate(458 -94)"><circle cx="5" cy="5" r="5" transform="translate(42 194)" fill="#b9b6b6"/></g><g transform="translate(508 -94)"><circle cx="5" cy="5" r="5" transform="translate(42 194)" fill="#b9b6b6"/></g><g transform="translate(558 -94)"><circle cx="5" cy="5" r="5" transform="translate(42 194)" fill="#b9b6b6"/></g><g transform="translate(608 -94)"><circle cx="5" cy="5" r="5" transform="translate(42 194)" fill="#b9b6b6"/></g><g transform="translate(-42 -44)"><circle cx="5" cy="5" r="5" transform="translate(42 194)" fill="#b9b6b6"/></g><g transform="translate(8 -44)"><circle cx="5" cy="5" r="5" transform="translate(42 194)" fill="#b9b6b6"/></g><g transform="translate(58 -44)"><circle cx="5" cy="5" r="5" transform="translate(42 194)" fill="#b9b6b6"/></g><g transform="translate(108 -44)"><circle cx="5" cy="5" r="5" transform="translate(42 194)" fill="#b9b6b6"/></g><g transform="translate(158 -44)"><circle cx="5" cy="5" r="5" transform="translate(42 194)" fill="#b9b6b6"/></g><g transform="translate(208 -44)"><circle cx="5" cy="5" r="5" transform="translate(42 194)" fill="#b9b6b6"/></g><g transform="translate(258 -44)"><circle cx="5" cy="5" r="5" transform="translate(42 194)" fill="#b9b6b6"/></g><g transform="translate(308 -44)"><circle cx="5" cy="5" r="5" transform="translate(42 194)" fill="#b9b6b6"/></g><g transform="translate(358 -44)"><circle cx="5" cy="5" r="5" transform="translate(42 194)" fill="#b9b6b6"/></g><g transform="translate(408 -44)"><circle cx="5" cy="5" r="5" transform="translate(42 194)" fill="#b9b6b6"/></g><g transform="translate(458 -44)"><circle cx="5" cy="5" r="5" transform="translate(42 194)" fill="#b9b6b6"/></g><g transform="translate(508 -44)"><circle cx="5" cy="5" r="5" transform="translate(42 194)" fill="#b9b6b6"/></g><g transform="translate(558 -44)"><circle cx="5" cy="5" r="5" transform="translate(42 194)" fill="#b9b6b6"/></g><g transform="translate(608 -44)"><circle cx="5" cy="5" r="5" transform="translate(42 194)" fill="#b9b6b6"/></g><g transform="translate(-42 6)"><circle cx="5" cy="5" r="5" transform="translate(42 194)" fill="#b9b6b6"/></g><g transform="translate(8 6)"><circle cx="5" cy="5" r="5" transform="translate(42 194)" fill="#b9b6b6"/></g><g transform="translate(58 6)"><circle cx="5" cy="5" r="5" transform="translate(42 194)" fill="#b9b6b6"/></g><g transform="translate(108 6)"><circle cx="5" cy="5" r="5" transform="translate(42 194)" fill="#b9b6b6"/></g><g transform="translate(158 6)"><circle cx="5" cy="5" r="5" transform="translate(42 194)" fill="#b9b6b6"/></g><g transform="translate(208 6)"><circle cx="5" cy="5" r="5" transform="translate(42 194)" fill="#b9b6b6"/></g><g transform="translate(258 6)"><circle cx="5" cy="5" r="5" transform="translate(42 194)" fill="#b9b6b6"/></g><g transform="translate(308 6)"><circle cx="5" cy="5" r="5" transform="translate(42 194)" fill="#b9b6b6"/></g><g transform="translate(358 6)"><circle cx="5" cy="5" r="5" transform="translate(42 194)" fill="#b9b6b6"/></g><g transform="translate(408 6)"><circle cx="5" cy="5" r="5" transform="translate(42 194)" fill="#b9b6b6"/></g><g transform="translate(458 6)"><circle cx="5" cy="5" r="5" transform="translate(42 194)" fill="#b9b6b6"/></g><g transform="translate(508 6)"><circle cx="5" cy="5" r="5" transform="translate(42 194)" fill="#b9b6b6"/></g><g transform="translate(558 6)"><circle cx="5" cy="5" r="5" transform="translate(42 194)" fill="#b9b6b6"/></g><g transform="translate(608 6)"><circle cx="5" cy="5" r="5" transform="translate(42 194)" fill="#b9b6b6"/></g><g transform="translate(-42 56)"><circle cx="5" cy="5" r="5" transform="translate(42 194)" fill="#b9b6b6"/></g><g transform="translate(8 56)"><circle cx="5" cy="5" r="5" transform="translate(42 194)" fill="#b9b6b6"/></g><g transform="translate(58 56)"><circle cx="5" cy="5" r="5" transform="translate(42 194)" fill="#b9b6b6"/></g><g transform="translate(108 56)"><circle cx="5" cy="5" r="5" transform="translate(42 194)" fill="#b9b6b6"/></g><g transform="translate(158 56)"><circle cx="5" cy="5" r="5" transform="translate(42 194)" fill="#b9b6b6"/></g><g transform="translate(208 56)"><circle cx="5" cy="5" r="5" transform="translate(42 194)" fill="#b9b6b6"/></g><g transform="translate(258 56)"><circle cx="5" cy="5" r="5" transform="translate(42 194)" fill="#b9b6b6"/></g><g transform="translate(308 56)"><circle cx="5" cy="5" r="5" transform="translate(42 194)" fill="#b9b6b6"/></g><g transform="translate(358 56)"><circle cx="5" cy="5" r="5" transform="translate(42 194)" fill="#b9b6b6"/></g><g transform="translate(408 56)"><circle cx="5" cy="5" r="5" transform="translate(42 194)" fill="#b9b6b6"/></g><g transform="translate(458 56)"><circle cx="5" cy="5" r="5" transform="translate(42 194)" fill="#b9b6b6"/></g><g transform="translate(508 56)"><circle cx="5" cy="5" r="5" transform="translate(42 194)" fill="#b9b6b6"/></g><g transform="translate(558 56)"><circle cx="5" cy="5" r="5" transform="translate(42 194)" fill="#b9b6b6"/></g><g transform="translate(608 56)"><circle cx="5" cy="5" r="5" transform="translate(42 194)" fill="#b9b6b6"/></g><g transform="translate(-42 106)"><circle cx="5" cy="5" r="5" transform="translate(42 194)" fill="#b9b6b6"/></g><g transform="translate(8 106)"><circle cx="5" cy="5" r="5" transform="translate(42 194)" fill="#b9b6b6"/></g><g transform="translate(58 106)"><circle cx="5" cy="5" r="5" transform="translate(42 194)" fill="#b9b6b6"/></g><g transform="translate(108 106)"><circle cx="5" cy="5" r="5" transform="translate(42 194)" fill="#b9b6b6"/></g><g transform="translate(158 106)"><circle cx="5" cy="5" r="5" transform="translate(42 194)" fill="#b9b6b6"/></g><g transform="translate(208 106)"><circle cx="5" cy="5" r="5" transform="translate(42 194)" fill="#b9b6b6"/></g><g transform="translate(258 106)"><circle cx="5" cy="5" r="5" transform="translate(42 194)" fill="#b9b6b6"/></g><g transform="translate(308 106)"><circle cx="5" cy="5" r="5" transform="translate(42 194)" fill="#b9b6b6"/></g><g transform="translate(358 106)"><circle cx="5" cy="5" r="5" transform="translate(42 194)" fill="#b9b6b6"/></g><g transform="translate(408 106)"><circle cx="5" cy="5" r="5" transform="translate(42 194)" fill="#b9b6b6"/></g><g transform="translate(458 106)"><circle cx="5" cy="5" r="5" transform="translate(42 194)" fill="#b9b6b6"/></g><g transform="translate(508 106)"><circle cx="5" cy="5" r="5" transform="translate(42 194)" fill="#b9b6b6"/></g><g transform="translate(558 106)"><circle cx="5" cy="5" r="5" transform="translate(42 194)" fill="#b9b6b6"/></g><g transform="translate(608 106)"><circle cx="5" cy="5" r="5" transform="translate(42 194)" fill="#b9b6b6"/></g><g transform="translate(-42 156)"><circle cx="5" cy="5" r="5" transform="translate(42 194)" fill="#b9b6b6"/></g><g transform="translate(8 156)"><circle cx="5" cy="5" r="5" transform="translate(42 194)" fill="#b9b6b6"/></g><g transform="translate(58 156)"><circle cx="5" cy="5" r="5" transform="translate(42 194)" fill="#b9b6b6"/></g><g transform="translate(108 156)"><circle cx="5" cy="5" r="5" transform="translate(42 194)" fill="#b9b6b6"/></g><g transform="translate(158 156)"><circle cx="5" cy="5" r="5" transform="translate(42 194)" fill="#b9b6b6"/></g><g transform="translate(208 156)"><circle cx="5" cy="5" r="5" transform="translate(42 194)" fill="#b9b6b6"/></g><g transform="translate(258 156)"><circle cx="5" cy="5" r="5" transform="translate(42 194)" fill="#b9b6b6"/></g><g transform="translate(308 156)"><circle cx="5" cy="5" r="5" transform="translate(42 194)" fill="#b9b6b6"/></g><g transform="translate(358 156)"><circle cx="5" cy="5" r="5" transform="translate(42 194)" fill="#b9b6b6"/></g><g transform="translate(408 156)"><circle cx="5" cy="5" r="5" transform="translate(42 194)" fill="#b9b6b6"/></g><g transform="translate(458 156)"><circle cx="5" cy="5" r="5" transform="translate(42 194)" fill="#b9b6b6"/></g><g transform="translate(508 156)"><circle cx="5" cy="5" r="5" transform="translate(42 194)" fill="#b9b6b6"/></g><g transform="translate(558 156)"><circle cx="5" cy="5" r="5" transform="translate(42 194)" fill="#b9b6b6"/></g><g transform="translate(608 156)"><circle cx="5" cy="5" r="5" transform="translate(42 194)" fill="#b9b6b6"/></g><g transform="translate(-42 206)"><circle cx="5" cy="5" r="5" transform="translate(42 194)" fill="#b9b6b6"/></g><g transform="translate(8 206)"><circle cx="5" cy="5" r="5" transform="translate(42 194)" fill="#b9b6b6"/></g><g transform="translate(58 206)"><circle cx="5" cy="5" r="5" transform="translate(42 194)" fill="#b9b6b6"/></g><g transform="translate(108 206)"><circle cx="5" cy="5" r="5" transform="translate(42 194)" fill="#b9b6b6"/></g><g transform="translate(158 206)"><circle cx="5" cy="5" r="5" transform="translate(42 194)" fill="#b9b6b6"/></g><g transform="translate(208 206)"><circle cx="5" cy="5" r="5" transform="translate(42 194)" fill="#b9b6b6"/></g><g transform="translate(258 206)"><circle cx="5" cy="5" r="5" transform="translate(42 194)" fill="#b9b6b6"/></g><g transform="translate(308 206)"><circle cx="5" cy="5" r="5" transform="translate(42 194)" fill="#b9b6b6"/></g><g transform="translate(358 206)"><circle cx="5" cy="5" r="5" transform="translate(42 194)" fill="#b9b6b6"/></g><g transform="translate(408 206)"><circle cx="5" cy="5" r="5" transform="translate(42 194)" fill="#b9b6b6"/></g><g transform="translate(458 206)"><circle cx="5" cy="5" r="5" transform="translate(42 194)" fill="#b9b6b6"/></g><g transform="translate(508 206)"><circle cx="5" cy="5" r="5" transform="translate(42 194)" fill="#b9b6b6"/></g><g transform="translate(558 206)"><circle cx="5" cy="5" r="5" transform="translate(42 194)" fill="#b9b6b6"/></g><g transform="translate(608 206)"><circle cx="5" cy="5" r="5" transform="translate(42 194)" fill="#b9b6b6"/></g><g transform="translate(-42 256)"><circle cx="5" cy="5" r="5" transform="translate(42 194)" fill="#b9b6b6"/></g><g transform="translate(8 256)"><circle cx="5" cy="5" r="5" transform="translate(42 194)" fill="#b9b6b6"/></g><g transform="translate(58 256)"><circle cx="5" cy="5" r="5" transform="translate(42 194)" fill="#b9b6b6"/></g><g transform="translate(108 256)"><circle cx="5" cy="5" r="5" transform="translate(42 194)" fill="#b9b6b6"/></g><g transform="translate(158 256)"><circle cx="5" cy="5" r="5" transform="translate(42 194)" fill="#b9b6b6"/></g><g transform="translate(208 256)"><circle cx="5" cy="5" r="5" transform="translate(42 194)" fill="#b9b6b6"/></g><g transform="translate(258 256)"><circle cx="5" cy="5" r="5" transform="translate(42 194)" fill="#b9b6b6"/></g><g transform="translate(308 256)"><circle cx="5" cy="5" r="5" transform="translate(42 194)" fill="#b9b6b6"/></g><g transform="translate(358 256)"><circle cx="5" cy="5" r="5" transform="translate(42 194)" fill="#b9b6b6"/></g><g transform="translate(408 256)"><circle cx="5" cy="5" r="5" transform="translate(42 194)" fill="#b9b6b6"/></g><g transform="translate(458 256)"><circle cx="5" cy="5" r="5" transform="translate(42 194)" fill="#b9b6b6"/></g><g transform="translate(508 256)"><circle cx="5" cy="5" r="5" transform="translate(42 194)" fill="#b9b6b6"/></g><g transform="translate(558 256)"><circle cx="5" cy="5" r="5" transform="translate(42 194)" fill="#b9b6b6"/></g><g transform="translate(608 256)"><circle cx="5" cy="5" r="5" transform="translate(42 194)" fill="#b9b6b6"/></g><g transform="translate(-42 306)"><circle cx="5" cy="5" r="5" transform="translate(42 194)" fill="#b9b6b6"/></g><g transform="translate(8 306)"><circle cx="5" cy="5" r="5" transform="translate(42 194)" fill="#b9b6b6"/></g><g transform="translate(58 306)"><circle cx="5" cy="5" r="5" transform="translate(42 194)" fill="#b9b6b6"/></g><g transform="translate(108 306)"><circle cx="5" cy="5" r="5" transform="translate(42 194)" fill="#b9b6b6"/></g><g transform="translate(158 306)"><circle cx="5" cy="5" r="5" transform="translate(42 194)" fill="#b9b6b6"/></g><g transform="translate(208 306)"><circle cx="5" cy="5" r="5" transform="translate(42 194)" fill="#b9b6b6"/></g><g transform="translate(258 306)"><circle cx="5" cy="5" r="5" transform="translate(42 194)" fill="#b9b6b6"/></g><g transform="translate(308 306)"><circle cx="5" cy="5" r="5" transform="translate(42 194)" fill="#b9b6b6"/></g><g transform="translate(358 306)"><circle cx="5" cy="5" r="5" transform="translate(42 194)" fill="#b9b6b6"/></g><g transform="translate(408 306)"><circle cx="5" cy="5" r="5" transform="translate(42 194)" fill="#b9b6b6"/></g><g transform="translate(458 306)"><circle cx="5" cy="5" r="5" transform="translate(42 194)" fill="#b9b6b6"/></g><g transform="translate(508 306)"><circle cx="5" cy="5" r="5" transform="translate(42 194)" fill="#b9b6b6"/></g><g transform="translate(558 306)"><circle cx="5" cy="5" r="5" transform="translate(42 194)" fill="#b9b6b6"/></g><g transform="translate(608 306)"><circle cx="5" cy="5" r="5" transform="translate(42 194)" fill="#b9b6b6"/></g><g transform="translate(-42 356)"><circle cx="5" cy="5" r="5" transform="translate(42 194)" fill="#b9b6b6"/></g><g transform="translate(8 356)"><circle cx="5" cy="5" r="5" transform="translate(42 194)" fill="#b9b6b6"/></g><g transform="translate(58 356)"><circle cx="5" cy="5" r="5" transform="translate(42 194)" fill="#b9b6b6"/></g><g transform="translate(108 356)"><circle cx="5" cy="5" r="5" transform="translate(42 194)" fill="#b9b6b6"/></g><g transform="translate(158 356)"><circle cx="5" cy="5" r="5" transform="translate(42 194)" fill="#b9b6b6"/></g><g transform="translate(208 356)"><circle cx="5" cy="5" r="5" transform="translate(42 194)" fill="#b9b6b6"/></g><g transform="translate(258 356)"><circle cx="5" cy="5" r="5" transform="translate(42 194)" fill="#b9b6b6"/></g><g transform="translate(308 356)"><circle cx="5" cy="5" r="5" transform="translate(42 194)" fill="#b9b6b6"/></g><g transform="translate(358 356)"><circle cx="5" cy="5" r="5" transform="translate(42 194)" fill="#b9b6b6"/></g><g transform="translate(408 356)"><circle cx="5" cy="5" r="5" transform="translate(42 194)" fill="#b9b6b6"/></g><g transform="translate(458 356)"><circle cx="5" cy="5" r="5" transform="translate(42 194)" fill="#b9b6b6"/></g><g transform="translate(508 356)"><circle cx="5" cy="5" r="5" transform="translate(42 194)" fill="#b9b6b6"/></g><g transform="translate(558 356)"><circle cx="5" cy="5" r="5" transform="translate(42 194)" fill="#b9b6b6"/></g><g transform="translate(608 356)"><circle cx="5" cy="5" r="5" transform="translate(42 194)" fill="#b9b6b6"/></g><g transform="translate(-42 406)"><circle cx="5" cy="5" r="5" transform="translate(42 194)" fill="#b9b6b6"/></g><g transform="translate(8 406)"><circle cx="5" cy="5" r="5" transform="translate(42 194)" fill="#b9b6b6"/></g><g transform="translate(58 406)"><circle cx="5" cy="5" r="5" transform="translate(42 194)" fill="#b9b6b6"/></g><g transform="translate(108 406)"><circle cx="5" cy="5" r="5" transform="translate(42 194)" fill="#b9b6b6"/></g><g transform="translate(158 406)"><circle cx="5" cy="5" r="5" transform="translate(42 194)" fill="#b9b6b6"/></g><g transform="translate(208 406)"><circle cx="5" cy="5" r="5" transform="translate(42 194)" fill="#b9b6b6"/></g><g transform="translate(258 406)"><circle cx="5" cy="5" r="5" transform="translate(42 194)" fill="#b9b6b6"/></g><g transform="translate(308 406)"><circle cx="5" cy="5" r="5" transform="translate(42 194)" fill="#b9b6b6"/></g><g transform="translate(358 406)"><circle cx="5" cy="5" r="5" transform="translate(42 194)" fill="#b9b6b6"/></g><g transform="translate(408 406)"><circle cx="5" cy="5" r="5" transform="translate(42 194)" fill="#b9b6b6"/></g><g transform="translate(458 406)"><circle cx="5" cy="5" r="5" transform="translate(42 194)" fill="#b9b6b6"/></g><g transform="translate(508 406)"><circle cx="5" cy="5" r="5" transform="translate(42 194)" fill="#b9b6b6"/></g><g transform="translate(558 406)"><circle cx="5" cy="5" r="5" transform="translate(42 194)" fill="#b9b6b6"/></g><g transform="translate(608 406)"><circle cx="5" cy="5" r="5" transform="translate(42 194)" fill="#b9b6b6"/></g><g transform="translate(-42 456)"><circle cx="5" cy="5" r="5" transform="translate(42 194)" fill="#b9b6b6"/></g><g transform="translate(8 456)"><circle cx="5" cy="5" r="5" transform="translate(42 194)" fill="#b9b6b6"/></g><g transform="translate(58 456)"><circle cx="5" cy="5" r="5" transform="translate(42 194)" fill="#b9b6b6"/></g><g transform="translate(108 456)"><circle cx="5" cy="5" r="5" transform="translate(42 194)" fill="#b9b6b6"/></g><g transform="translate(158 456)"><circle cx="5" cy="5" r="5" transform="translate(42 194)" fill="#b9b6b6"/></g><g transform="translate(208 456)"><circle cx="5" cy="5" r="5" transform="translate(42 194)" fill="#b9b6b6"/></g><g transform="translate(258 456)"><circle cx="5" cy="5" r="5" transform="translate(42 194)" fill="#b9b6b6"/></g><g transform="translate(308 456)"><circle cx="5" cy="5" r="5" transform="translate(42 194)" fill="#b9b6b6"/></g><g transform="translate(358 456)"><circle cx="5" cy="5" r="5" transform="translate(42 194)" fill="#b9b6b6"/></g><g transform="translate(408 456)"><circle cx="5" cy="5" r="5" transform="translate(42 194)" fill="#b9b6b6"/></g><g transform="translate(458 456)"><circle cx="5" cy="5" r="5" transform="translate(42 194)" fill="#b9b6b6"/></g><g transform="translate(508 456)"><circle cx="5" cy="5" r="5" transform="translate(42 194)" fill="#b9b6b6"/></g><g transform="translate(558 456)"><circle cx="5" cy="5" r="5" transform="translate(42 194)" fill="#b9b6b6"/></g><g transform="translate(608 456)"><circle cx="5" cy="5" r="5" transform="translate(42 194)" fill="#b9b6b6"/></g></g></svg>