<?xml version="1.0" standalone="no"?>
<!DOCTYPE svg PUBLIC "-//W3C//DTD SVG 20010904//EN"
 "http://www.w3.org/TR/2001/REC-SVG-20010904/DTD/svg10.dtd">
<svg version="1.0" xmlns="http://www.w3.org/2000/svg"
 width="2854.000000pt" height="1340.000000pt" viewBox="0 0 2854.000000 1340.000000"
 preserveAspectRatio="xMidYMid meet">

<g transform="translate(0.000000,1340.000000) scale(0.100000,-0.100000)"
fill="#000000" stroke="none">
<path d="M0 6700 l0 -6700 14270 0 14270 0 0 6700 0 6700 -14270 0 -14270 0 0
-6700z m10690 6390 c0 -5 -4 -10 -10 -10 -5 0 -10 5 -10 10 0 6 5 10 10 10 6
0 10 -4 10 -10z m3098 -158 c2 -7 -3 -12 -12 -12 -9 0 -16 7 -16 16 0 17 22
14 28 -4z m12238 -23 c62 -23 124 -74 159 -129 52 -83 56 -208 11 -299 -37
-73 -131 -151 -181 -151 -10 0 -14 20 -17 73 -2 39 -8 80 -12 90 -7 14 -3 17
18 17 39 0 84 26 101 60 19 37 19 99 0 124 -8 11 -15 39 -15 63 0 46 -4 49
-47 32 -42 -18 -202 -19 -236 -2 -41 21 -57 11 -57 -36 0 -21 -7 -52 -15 -67
-17 -33 -12 -95 12 -131 15 -23 61 -43 99 -43 20 0 21 -2 11 -25 -7 -14 -16
-25 -20 -25 -5 0 -6 -4 -3 -8 2 -4 -8 -8 -24 -7 -15 0 -26 4 -22 9 3 5 -2 7
-10 3 -11 -4 -18 2 -22 19 -4 14 -11 22 -16 19 -6 -4 -13 1 -16 9 -3 9 -13 16
-22 16 -13 0 -12 -4 4 -22 11 -13 28 -35 37 -50 14 -23 25 -28 57 -28 l40 0 0
-43 c0 -24 -3 -46 -6 -50 -4 -3 -28 5 -53 18 -138 69 -206 244 -151 388 59
158 236 236 396 176z m-3682 -31 c3 -13 6 -34 6 -48 0 -21 -3 -19 -20 14 -18
37 -19 56 -1 56 5 0 11 -10 15 -22z m4764 10 c9 -9 12 -82 12 -268 0 -186 -3
-259 -12 -268 -17 -17 -519 -17 -536 0 -9 9 -12 82 -12 268 0 186 3 259 12
268 9 9 82 12 268 12 186 0 259 -3 268 -12z m843 -30 c37 -21 40 -21 74 -5 41
20 45 10 10 -27 -26 -28 -22 -32 22 -15 l28 10 -33 -34 c-26 -27 -35 -47 -43
-98 -21 -133 -94 -235 -207 -291 -62 -31 -74 -33 -162 -32 -79 0 -103 4 -145
25 l-50 24 50 6 c58 7 125 33 125 48 0 6 -9 11 -19 11 -21 0 -81 51 -81 69 0
6 8 11 18 11 12 0 7 9 -20 35 -21 18 -38 35 -38 37 0 2 -4 17 -9 35 -9 31 -9
32 16 22 36 -14 39 -11 15 14 -26 28 -37 74 -27 123 l7 37 21 -25 c38 -44 94
-79 158 -99 80 -25 89 -24 89 6 0 42 36 100 72 118 45 23 83 21 129 -5z
m-26771 -48 c0 -54 0 -54 47 -41 44 13 97 -3 123 -36 17 -22 20 -40 20 -135
l0 -109 -27 3 -28 3 -3 95 c-3 104 -15 130 -62 130 -55 0 -65 -19 -68 -129
l-4 -101 -29 0 -29 0 0 185 0 185 30 0 c29 0 30 -1 30 -50z m-690 -117 c-1
-154 -4 -169 -47 -191 -60 -32 -137 1 -149 66 -6 30 -5 32 24 32 23 0 31 -5
36 -24 7 -27 35 -38 60 -24 14 8 16 30 16 148 l0 140 30 0 30 0 0 -147z m1281
118 c34 -35 38 -77 10 -112 -18 -22 -18 -23 6 -58 18 -26 23 -44 19 -65 -13
-62 -61 -86 -171 -86 l-75 0 0 175 0 175 91 0 c87 0 92 -1 120 -29z m527 -63
c-2 -25 -9 -33 -32 -39 -16 -5 -33 -14 -37 -21 -5 -7 -9 -55 -9 -105 l0 -93
-30 0 -30 0 0 140 0 140 30 0 c17 0 30 -5 30 -11 0 -8 4 -8 13 -1 11 9 35 17
60 21 5 0 7 -13 5 -31z m-1523 0 c108 -84 47 -258 -90 -258 -87 0 -140 64
-133 158 4 48 10 60 41 89 33 30 43 33 96 33 45 0 65 -5 86 -22z m270 -3 c26
-25 33 -59 15 -70 -16 -10 -50 5 -50 20 0 19 -48 31 -69 18 -30 -19 -17 -38
39 -55 58 -19 100 -56 100 -89 0 -11 -14 -34 -30 -51 -29 -28 -35 -30 -86 -26
-58 5 -104 35 -104 70 0 25 44 24 70 -2 23 -23 49 -26 75 -7 26 19 14 31 -54
56 -92 33 -117 88 -65 136 39 36 124 36 159 0z m865 -66 c0 -50 4 -99 10 -109
19 -35 88 -33 112 4 4 6 8 53 8 104 l0 92 30 0 30 0 0 -140 0 -140 -30 0 c-16
0 -30 4 -30 10 0 6 -9 6 -26 0 -52 -20 -94 -12 -130 24 l-34 34 0 106 0 106
30 0 30 0 0 -91z m609 79 c11 -10 14 -10 18 0 3 6 18 12 34 12 l29 0 0 -166 0
-166 -33 -33 c-63 -63 -167 -56 -214 14 -13 19 -23 38 -23 42 0 19 54 8 76
-16 47 -51 134 -22 134 46 0 29 -1 30 -22 15 -12 -9 -41 -16 -63 -16 -132 0
-185 175 -79 259 31 24 121 29 143 9z m346 -10 c30 -24 55 -74 55 -113 l0 -25
-105 0 c-115 0 -130 -9 -79 -49 36 -28 70 -26 98 4 25 27 76 35 76 11 0 -22
-37 -62 -70 -76 -18 -7 -50 -10 -77 -7 -38 4 -54 12 -80 41 -58 63 -44 183 25
220 42 23 124 20 157 -6z m271 -3 c30 -30 29 -69 -2 -73 -14 -2 -27 6 -38 23
-14 21 -24 26 -49 23 -24 -2 -32 -8 -32 -23 0 -15 13 -25 56 -40 76 -27 89
-40 89 -85 0 -51 -35 -80 -97 -80 -55 0 -99 25 -112 62 -10 27 -9 28 25 28 18
0 34 -4 34 -10 0 -16 41 -32 66 -26 44 12 30 42 -28 61 -96 32 -126 88 -73
140 20 21 34 25 80 25 46 0 60 -4 81 -25z m250 0 c30 -30 29 -69 -2 -73 -14
-2 -27 6 -38 23 -14 21 -24 26 -49 23 -24 -2 -32 -8 -32 -23 0 -15 13 -25 56
-40 76 -27 89 -40 89 -85 0 -51 -35 -80 -97 -80 -55 0 -99 25 -112 62 -10 27
-9 28 25 28 18 0 34 -4 34 -10 0 -16 41 -32 66 -26 44 12 30 42 -28 61 -96 32
-126 88 -73 140 20 21 34 25 80 25 46 0 60 -4 81 -25z m814 -541 c0 -8 -4 -12
-10 -9 -5 3 -10 10 -10 16 0 5 5 9 10 9 6 0 10 -7 10 -16z m18312 -118 l27
-34 -39 22 c-22 11 -40 27 -40 34 0 23 25 12 52 -22z m64 -53 c-7 -7 -26 7
-26 19 0 6 6 6 15 -2 9 -7 13 -15 11 -17z m-14211 -14 c10 -15 -1 -23 -20 -15
-9 3 -13 10 -10 16 8 13 22 13 30 -1z m-325 -19 c0 -5 -7 -10 -15 -10 -8 0
-15 5 -15 10 0 6 7 10 15 10 8 0 15 -4 15 -10z m11845 -9 c7 -12 -12 -24 -25
-16 -11 7 -4 25 10 25 5 0 11 -4 15 -9z m2830 -59 c-6 -7 -35 18 -35 31 0 5 9
2 20 -8 11 -10 18 -20 15 -23z m-17555 -18 c0 -8 -5 -12 -10 -9 -6 4 -8 11 -5
16 9 14 15 11 15 -7z m17605 -84 c17 -18 17 -20 2 -15 -9 3 -24 7 -33 10 -8 3
-12 9 -9 15 9 15 20 12 40 -10z m-6665 -146 c0 -8 -4 -12 -10 -9 -5 3 -10 10
-10 16 0 5 5 9 10 9 6 0 10 -7 10 -16z m7005 -14 c22 -11 45 -20 52 -20 14 0
18 -26 5 -34 -5 -3 -21 6 -36 19 -15 13 -37 30 -49 39 -31 21 -18 20 28 -4z
m-1084 -55 c0 -5 -9 -11 -21 -13 -20 -3 -27 8 -13 22 10 9 34 3 34 -9z m-2044
-48 c-6 -20 -27 -19 -27 2 0 14 5 19 15 14 9 -3 14 -10 12 -16z m-15307 -133
c0 -8 -6 -14 -13 -14 -19 0 -27 10 -20 25 6 17 33 8 33 -11z m19030 -207 c-7
-8 -45 19 -151 106 -19 15 10 -1 63 -35 53 -35 93 -67 88 -71z m-14530 73 c0
-5 -4 -10 -9 -10 -6 0 -13 5 -16 10 -3 6 1 10 9 10 9 0 16 -4 16 -10z m13683
-263 c-9 -14 -23 4 -23 31 l1 27 13 -25 c8 -14 12 -28 9 -33z m-13209 -37 c14
-5 26 -14 26 -19 0 -23 -18 -16 -65 27 -27 24 -36 35 -19 24 17 -12 43 -26 58
-32z m4766 -432 l0 -341 -265 332 c-145 182 -267 336 -270 341 -4 6 95 10 264
10 l271 0 0 -342z m-9242 163 c3 -8 -1 -12 -9 -9 -7 2 -15 10 -17 17 -3 8 1
12 9 9 7 -2 15 -10 17 -17z m-4918 -17 c0 -8 -5 -12 -10 -9 -6 4 -8 11 -5 16
9 14 15 11 15 -7z m5730 -524 c0 -6 -7 -10 -15 -10 -8 0 -15 2 -15 4 0 2 -3
12 -7 21 -5 15 -3 16 15 6 12 -7 22 -16 22 -21z m14520 -110 c0 -5 -7 -10 -15
-10 -8 0 -15 5 -15 10 0 6 7 10 15 10 8 0 15 -4 15 -10z m-1820 -254 c0 -11
-19 -15 -25 -6 -3 5 1 10 9 10 9 0 16 -2 16 -4z m-15450 -56 c0 -5 -4 -10 -10
-10 -5 0 -10 5 -10 10 0 6 5 10 10 10 6 0 10 -4 10 -10z m14310 -366 c0 -8 -5
-12 -10 -9 -6 4 -8 11 -5 16 9 14 15 11 15 -7z m-7550 -115 c0 -5 -7 -9 -15
-9 -15 0 -20 12 -9 23 8 8 24 -1 24 -14z m4310 -153 l105 -44 3 -363 c1 -199
0 -361 -2 -358 -2 2 -52 177 -111 389 -58 212 -108 393 -111 403 -3 9 -2 17 3
17 5 0 56 -20 113 -44z m-2380 -336 c0 -5 -4 -10 -10 -10 -5 0 -10 5 -10 10 0
6 5 10 10 10 6 0 10 -4 10 -10z m-4665 -169 c3 -5 1 -12 -5 -16 -5 -3 -10 1
-10 9 0 18 6 21 15 7z m17215 -10 c0 -6 -4 -13 -10 -16 -5 -3 -10 1 -10 9 0 9
5 16 10 16 6 0 10 -4 10 -9z m-16570 -81 c0 -5 -4 -10 -9 -10 -6 0 -13 5 -16
10 -3 6 1 10 9 10 9 0 16 -4 16 -10z m13370 -70 c0 -5 -4 -10 -10 -10 -5 0
-10 5 -10 10 0 6 5 10 10 10 6 0 10 -4 10 -10z m-7522 -92 c-6 -18 -28 -21
-28 -4 0 9 7 16 16 16 9 0 14 -5 12 -12z m662 -465 c0 -296 -2 -345 -14 -333
-23 24 -536 671 -536 676 0 2 124 4 275 4 l275 0 0 -347z m1120 302 c0 -8 -7
-15 -15 -15 -8 0 -15 7 -15 15 0 8 7 15 15 15 8 0 15 -7 15 -15z m8460 -4 c0
-14 -18 -23 -30 -16 -6 4 -8 11 -5 16 8 12 35 12 35 0z m-12370 -126 c0 -8 -7
-15 -15 -15 -8 0 -15 7 -15 15 0 8 7 15 15 15 8 0 15 -7 15 -15z m425 -194
c10 -17 -12 -21 -25 -6 -10 12 -10 15 3 15 9 0 18 -4 22 -9z m596 -351 c-45
-194 -81 -361 -81 -371 0 -10 99 -152 219 -316 120 -164 217 -300 216 -302 -6
-5 -101 18 -190 46 -97 31 -200 82 -277 136 -46 32 -57 44 -53 61 3 11 14 60
24 107 l18 87 -88 112 c-49 62 -87 115 -85 119 117 220 370 680 373 677 2 -2
-32 -162 -76 -356z m-2293 118 c-6 -18 -28 -21 -28 -4 0 9 7 16 16 16 9 0 14
-5 12 -12z m3510 -289 l-3 -172 -41 53 -42 53 24 70 c13 38 29 105 36 149 11
70 14 76 21 49 4 -17 6 -108 5 -202z m-8898 -344 c0 -8 -4 -15 -9 -15 -13 0
-22 16 -14 24 11 11 23 6 23 -9z m8720 -175 c289 -84 341 -101 335 -109 -2 -5
-36 -27 -74 -50 l-70 -42 -198 127 c-215 137 -218 139 -188 130 11 -3 99 -29
195 -56z m7120 20 c0 -5 -5 -10 -11 -10 -5 0 -7 5 -4 10 3 6 8 10 11 10 2 0 4
-4 4 -10z m-16240 -345 c0 -8 -7 -15 -15 -15 -8 0 -15 7 -15 15 0 8 7 15 15
15 8 0 15 -7 15 -15z m820 -290 c0 -8 -7 -15 -15 -15 -8 0 -15 7 -15 15 0 8 7
15 15 15 8 0 15 -7 15 -15z m8490 -99 c0 -8 -4 -17 -9 -21 -12 -7 -24 12 -16
25 9 15 25 12 25 -4z m-5752 -938 c-2 -6 -10 -14 -16 -16 -7 -2 -10 2 -6 12 7
18 28 22 22 4z m5384 -50 c-15 -15 -26 -4 -18 18 5 13 9 15 18 6 9 -9 9 -15 0
-24z m-912 -258 l0 -111 27 26 c61 56 180 61 252 11 117 -82 121 -294 6 -382
-72 -54 -188 -54 -255 2 l-30 26 0 -31 c0 -29 -2 -31 -40 -31 l-40 0 0 300 0
300 40 0 40 0 0 -110z m2760 -190 l0 -300 -40 0 -40 0 0 300 0 300 40 0 40 0
0 -300z m-4021 48 c31 -120 58 -218 62 -218 4 0 49 149 121 408 8 30 12 32 53
32 43 0 45 -1 54 -37 6 -21 33 -121 60 -222 27 -101 52 -185 54 -187 2 -2 28
89 57 203 29 115 57 216 62 226 9 18 72 25 82 9 3 -5 -27 -116 -65 -248 -38
-131 -74 -256 -80 -277 -10 -38 -10 -38 -57 -35 l-47 3 -59 207 c-33 114 -63
205 -66 202 -3 -3 -32 -96 -65 -207 l-60 -202 -47 -3 -47 -3 -11 43 c-7 24
-41 146 -76 273 -36 126 -62 236 -59 243 3 9 18 12 42 10 l36 -3 56 -217z
m2222 202 c131 -38 209 -180 181 -331 -14 -75 -51 -133 -112 -171 -64 -41
-100 -48 -237 -48 l-123 0 0 278 c0 153 3 282 8 287 9 10 237 -1 283 -15z
m-1240 -123 c60 -32 99 -96 106 -176 l6 -61 -177 0 c-196 0 -197 0 -157 -66
43 -71 165 -79 213 -14 18 25 29 30 65 30 24 0 43 -3 43 -6 0 -4 -9 -23 -21
-43 -71 -127 -282 -132 -366 -8 -61 90 -47 243 29 314 61 57 181 71 259 30z
m1800 9 c67 -28 104 -77 119 -156 18 -93 23 -90 -171 -90 -185 0 -185 0 -155
-59 41 -78 166 -90 218 -21 18 25 29 30 64 30 l43 0 -10 -30 c-15 -41 -80 -97
-131 -111 -58 -15 -131 -5 -184 26 -146 86 -133 342 22 411 40 17 144 17 185
0z m246 2 c5 -7 36 -86 69 -175 32 -90 61 -163 64 -163 3 0 34 79 69 176 l64
175 41 -3 c30 -2 40 -7 38 -18 -2 -8 -40 -108 -84 -222 l-82 -208 -47 0 -47 0
-86 218 c-47 120 -86 221 -86 225 0 12 77 7 87 -5z m734 -23 c55 -39 88 -103
89 -172 l0 -53 -176 0 -176 0 7 -27 c9 -37 51 -80 91 -93 46 -15 106 2 138 40
20 24 33 30 65 30 50 0 52 -12 12 -67 -51 -70 -146 -98 -242 -70 -96 28 -150
108 -150 221 0 100 36 166 113 205 35 18 57 21 115 19 61 -3 78 -8 114 -33z
m701 -1 c153 -107 117 -359 -60 -410 -120 -35 -232 15 -278 125 -19 44 -18
142 2 189 37 90 112 134 221 130 61 -3 78 -8 115 -34z m268 -4 c4 -24 7 -30
12 -19 11 27 89 59 145 59 127 0 212 -90 213 -226 0 -73 -35 -152 -85 -190
-72 -54 -188 -54 -255 2 l-30 26 0 -136 0 -136 -40 0 -40 0 0 331 0 330 38 -3
c34 -3 37 -6 42 -38z m741 26 c67 -28 104 -77 119 -156 18 -93 23 -90 -171
-90 -158 0 -169 -1 -169 -19 0 -10 10 -33 23 -52 46 -69 161 -73 209 -9 18 25
29 30 64 30 l43 0 -10 -30 c-15 -41 -80 -97 -131 -111 -58 -15 -131 -5 -184
26 -146 86 -133 342 22 411 40 17 144 17 185 0z m297 -13 l3 -22 36 25 c20 14
50 24 69 24 33 0 34 -1 34 -39 0 -38 -1 -38 -42 -44 -31 -4 -51 -14 -70 -37
-28 -30 -28 -31 -28 -180 l0 -150 -45 0 -45 0 0 218 c0 120 3 222 7 226 4 4
23 6 43 4 27 -2 36 -8 38 -25z m-9218 -53 c0 -5 -4 -10 -10 -10 -5 0 -10 5
-10 10 0 6 5 10 10 10 6 0 10 -4 10 -10z m-2802 -118 c2 -7 -3 -12 -12 -12 -9
0 -16 7 -16 16 0 17 22 14 28 -4z m13232 -62 c0 -5 -4 -10 -10 -10 -5 0 -10 5
-10 10 0 6 5 10 10 10 6 0 10 -4 10 -10z m-9135 -39 c3 -5 1 -12 -4 -15 -13
-8 -42 4 -35 15 7 12 31 12 39 0z m-2467 -343 c-6 -18 -28 -21 -28 -4 0 9 7
16 16 16 9 0 14 -5 12 -12z m3424 -10 c-9 -9 -15 -9 -24 0 -9 9 -7 12 12 12
19 0 21 -3 12 -12z m-2280 -200 c-15 -15 -26 -4 -18 18 5 13 9 15 18 6 9 -9 9
-15 0 -24z m15698 -188 c0 -5 -7 -10 -16 -10 -8 0 -12 5 -9 10 3 6 10 10 16
10 5 0 9 -4 9 -10z m-10650 -211 c0 -5 -7 -9 -15 -9 -15 0 -20 12 -9 23 8 8
24 -1 24 -14z m-3432 -335 c2 -11 -3 -26 -11 -33 -29 -24 -70 17 -46 46 17 20
53 12 57 -13z m9572 -45 l0 -60 22 15 c30 21 103 20 139 -1 80 -47 77 -198 -4
-240 -40 -20 -100 -20 -132 1 -23 15 -25 15 -25 1 0 -12 -8 -15 -27 -13 l-28
3 -3 178 -2 177 30 0 30 0 0 -61z m-5588 25 c24 -12 68 -63 68 -78 0 -17 -59
-3 -80 19 -30 32 -77 41 -123 22 -94 -40 -89 -205 7 -237 42 -14 93 -1 121 30
16 18 75 29 75 14 0 -18 -48 -68 -76 -80 -53 -22 -135 -18 -175 9 -41 27 -79
98 -79 147 0 45 36 118 71 143 51 37 130 41 191 11z m-4628 5 c24 -11 56 -62
56 -89 0 -27 -32 -78 -56 -89 -14 -6 -47 -11 -74 -11 l-50 0 0 -71 0 -70 -27
3 -28 3 -3 168 -2 167 79 0 c44 0 91 -5 105 -11z m1356 -24 c0 -33 2 -35 35
-35 28 0 35 -4 35 -20 0 -16 -7 -20 -35 -20 l-36 0 3 -87 3 -88 33 -10 c21 -6
32 -15 32 -27 0 -14 -8 -18 -42 -18 -68 0 -78 17 -78 127 0 86 -2 95 -20 100
-11 3 -20 14 -20 24 0 12 7 19 20 19 16 0 20 7 20 35 0 31 3 35 25 35 22 0 25
-4 25 -35z m4070 0 c0 -33 2 -35 35 -35 28 0 35 -4 35 -19 0 -15 -8 -21 -31
-23 -31 -3 -32 -5 -36 -58 -7 -87 3 -120 38 -127 20 -4 29 -11 29 -24 0 -15
-7 -19 -37 -19 -67 0 -83 27 -83 139 0 65 -3 81 -15 81 -9 0 -15 9 -15 25 0
16 6 25 15 25 10 0 15 10 15 28 0 33 7 42 32 42 14 0 18 -8 18 -35z m790 0 c0
-33 2 -35 35 -35 28 0 35 -4 35 -19 0 -15 -8 -21 -32 -23 -32 -3 -33 -4 -36
-58 -5 -89 4 -120 39 -127 20 -4 29 -11 29 -24 0 -15 -7 -19 -37 -19 -68 0
-83 27 -83 144 0 70 -3 86 -15 86 -8 0 -15 9 -15 20 0 11 7 20 15 20 10 0 15
10 15 28 0 33 7 42 32 42 14 0 18 -8 18 -35z m361 -100 l58 -130 31 68 c16 37
43 96 59 132 25 55 34 65 55 65 l26 0 0 -170 0 -170 -25 0 c-24 0 -24 1 -27
108 l-3 107 -46 -105 c-40 -90 -50 -105 -70 -105 -19 0 -29 15 -68 104 l-46
104 -3 -107 -3 -107 -27 3 -27 3 -3 155 c-1 85 0 160 3 168 3 8 16 12 31 10
23 -3 33 -18 85 -133z m3480 -30 c32 -88 59 -163 59 -167 0 -5 -11 -8 -26 -8
-19 0 -28 8 -40 35 l-14 35 -69 0 -69 0 -12 -35 c-10 -30 -16 -35 -42 -35 -25
0 -29 3 -23 18 4 9 32 86 62 170 l56 153 30 -3 c29 -3 31 -8 88 -163z m1107
128 c3 -30 6 -33 38 -33 27 0 34 -4 34 -20 0 -16 -7 -20 -35 -20 l-35 0 0 -90
0 -89 35 -7 c25 -4 35 -11 35 -25 0 -16 -8 -19 -43 -19 -67 0 -80 21 -85 136
-3 71 -8 94 -18 94 -8 0 -14 9 -14 20 0 11 7 20 15 20 10 0 15 10 15 28 0 35
8 44 35 40 15 -2 21 -12 23 -35z m-5905 -45 c32 -16 47 -71 47 -168 0 -88 0
-90 -24 -90 -23 0 -24 3 -28 95 -4 102 -12 119 -58 130 -18 4 -34 0 -53 -15
-26 -21 -27 -25 -27 -116 l0 -95 -27 3 -28 3 0 130 0 130 28 3 c15 2 27 -1 27
-6 0 -5 16 -4 38 4 37 13 70 10 105 -8z m805 -7 c22 -12 42 -41 42 -60 0 -20
-42 -11 -72 14 -33 28 -46 30 -81 14 -28 -12 -47 -47 -47 -84 0 -80 84 -124
134 -70 26 28 66 34 66 9 0 -25 -56 -71 -95 -77 -53 -9 -105 12 -132 52 -42
62 -25 173 30 202 51 28 103 28 155 0z m-5913 9 c4 -7 12 -7 25 0 35 19 60 12
60 -15 0 -20 -5 -25 -23 -25 -43 0 -56 -28 -59 -125 -3 -90 -3 -90 -30 -93
l-28 -3 0 135 0 136 24 0 c14 0 28 -5 31 -10z m343 -24 c36 -33 37 -37 37
-101 0 -64 -1 -68 -37 -101 -22 -20 -49 -35 -65 -36 -109 -6 -163 40 -163 137
0 87 49 134 138 135 46 0 57 -4 90 -34z m142 -150 c0 -203 0 -202 -64 -213
-33 -5 -36 -4 -36 20 0 19 6 26 23 29 22 3 22 5 25 176 l2 172 25 0 25 0 0
-184z m259 169 c33 -17 64 -75 59 -113 l-3 -27 -102 -3 c-61 -2 -103 -7 -103
-13 0 -19 49 -59 74 -59 13 0 38 11 54 25 56 47 99 21 48 -30 -49 -49 -145
-51 -193 -2 -52 52 -49 160 7 210 25 22 40 27 81 27 27 0 63 -7 78 -15z m317
-19 c19 -19 34 -39 34 -45 0 -21 -49 -11 -75 15 -21 21 -32 25 -58 20 -45 -9
-67 -39 -67 -93 0 -81 73 -121 126 -68 24 24 74 35 74 16 0 -22 -54 -71 -88
-81 -106 -29 -196 71 -163 180 18 60 61 90 128 90 49 0 59 -4 89 -34z m418 12
c13 -13 27 -33 31 -45 5 -19 2 -23 -16 -23 -12 0 -32 11 -45 25 -26 28 -56 32
-74 10 -20 -24 -5 -40 59 -64 82 -30 102 -71 61 -123 -47 -60 -190 -31 -190
39 0 20 45 15 65 -7 21 -23 53 -26 80 -6 27 19 8 40 -56 61 -84 28 -111 92
-57 138 31 26 110 23 142 -5z m3316 7 c85 -44 83 -197 -3 -241 -44 -24 -111
-22 -145 3 -82 60 -77 196 9 240 33 17 104 16 139 -2z m778 -1 c20 -14 22 -14
22 0 0 11 10 16 30 16 l30 0 0 -135 0 -135 -30 0 c-21 0 -30 5 -30 16 0 13 -3
14 -14 5 -25 -21 -74 -30 -110 -20 -99 27 -127 175 -45 243 36 31 111 36 147
10z m1341 1 c33 -17 64 -75 59 -113 l-3 -27 -102 -3 c-61 -2 -103 -7 -103 -13
0 -19 49 -59 74 -59 13 0 38 11 54 25 56 47 99 21 48 -30 -49 -49 -145 -51
-193 -2 -52 52 -49 160 7 210 25 22 40 27 81 27 27 0 63 -7 78 -15z m3642 -23
c71 -80 35 -209 -65 -232 -128 -29 -211 90 -149 212 21 42 59 59 127 55 51 -3
63 -8 87 -35z m139 -54 c0 -51 4 -98 8 -104 14 -21 52 -34 78 -28 36 9 54 57
54 149 0 73 1 75 25 75 l25 0 0 -135 0 -135 -24 0 c-13 0 -26 6 -29 13 -3 9
-7 9 -21 -2 -20 -17 -84 -18 -114 -2 -39 21 -54 57 -59 145 -7 100 -2 116 32
116 25 0 25 0 25 -92z m-7740 2 c0 -19 -7 -20 -100 -20 -93 0 -100 1 -100 20
0 19 7 20 100 20 93 0 100 -1 100 -20z m5460 0 c0 -19 -7 -20 -100 -20 -93 0
-100 1 -100 20 0 19 7 20 100 20 93 0 100 -1 100 -20z m7660 -295 c0 -8 -4
-15 -9 -15 -13 0 -22 16 -14 24 11 11 23 6 23 -9z m-9870 -15 c0 -5 -4 -10 -9
-10 -6 0 -13 5 -16 10 -3 6 1 10 9 10 9 0 16 -4 16 -10z m7310 -766 c0 -9 -5
-14 -12 -12 -18 6 -21 28 -4 28 9 0 16 -7 16 -16z m-21250 -164 c0 -5 -4 -10
-10 -10 -5 0 -10 5 -10 10 0 6 5 10 10 10 6 0 10 -4 10 -10z m13212 -216 c23
-16 52 -49 65 -73 22 -43 23 -52 23 -291 0 -239 -1 -248 -23 -291 -13 -24 -43
-57 -66 -74 -37 -26 -51 -30 -111 -30 -60 0 -74 4 -111 30 -23 17 -53 50 -66
75 -24 44 -24 48 -21 302 l3 256 30 43 c65 92 188 116 277 53z m-13722 -138
c0 -11 -19 -15 -25 -6 -3 5 1 10 9 10 9 0 16 -2 16 -4z"/>
<path d="M26656 12804 c-23 -23 -20 -51 8 -69 33 -22 66 -5 66 33 0 49 -42 69
-74 36z"/>
<path d="M26650 12555 l0 -135 40 0 40 0 0 135 0 135 -40 0 -40 0 0 -135z"/>
<path d="M26780 12555 l0 -135 40 0 40 0 0 78 c0 87 16 122 55 122 35 0 45
-27 45 -119 l0 -81 40 0 40 0 0 94 c0 101 -12 151 -40 166 -33 17 -98 12 -120
-10 l-20 -20 0 20 c0 17 -7 20 -40 20 l-40 0 0 -135z"/>
<path d="M1620 12745 l0 -45 44 0 c27 0 51 6 60 16 36 36 6 74 -60 74 l-44 0
0 -45z"/>
<path d="M1622 12593 l3 -48 49 2 c56 2 69 11 69 48 0 35 -17 45 -76 45 l-48
0 3 -47z"/>
<path d="M635 12695 c-31 -30 -34 -92 -6 -126 27 -34 86 -32 117 5 27 31 30
65 9 105 -24 48 -81 56 -120 16z"/>
<path d="M2422 12713 c-17 -7 -42 -57 -42 -86 0 -55 67 -100 113 -76 34 19 46
40 47 82 0 63 -59 104 -118 80z"/>
<path d="M2730 12700 c-33 -33 -24 -40 50 -40 76 0 91 14 48 44 -31 22 -74 20
-98 -4z"/>
<path d="M12670 4762 c-95 -47 -106 -193 -19 -266 30 -25 39 -28 91 -24 87 6
131 58 131 154 0 118 -103 187 -203 136z"/>
<path d="M13340 4685 l0 -217 94 4 c81 3 99 8 134 30 54 36 82 96 82 176 0
144 -66 208 -226 219 l-84 6 0 -218z"/>
<path d="M12133 4760 c-30 -18 -63 -65 -63 -90 0 -6 46 -10 130 -10 143 0 145
1 115 59 -29 57 -122 78 -182 41z"/>
<path d="M13964 4771 c-29 -13 -74 -69 -74 -92 0 -18 8 -19 131 -19 l131 0 -7
28 c-11 48 -57 84 -112 88 -26 2 -57 0 -69 -5z"/>
<path d="M14892 4760 c-27 -17 -62 -70 -62 -95 0 -3 59 -5 130 -5 129 0 130 0
130 23 0 78 -120 124 -198 77z"/>
<path d="M15592 4760 c-68 -41 -90 -154 -46 -229 51 -86 193 -80 239 9 22 43
21 122 -2 167 -35 68 -125 93 -191 53z"/>
<path d="M16140 4762 c-95 -47 -106 -193 -19 -266 30 -25 39 -28 91 -24 87 6
131 58 131 154 0 118 -103 187 -203 136z"/>
<path d="M16654 4771 c-29 -13 -74 -69 -74 -92 0 -18 8 -19 131 -19 l131 0 -7
28 c-11 48 -57 84 -112 88 -26 2 -57 0 -69 -5z"/>
<path d="M19094 3140 c-59 -24 -72 -104 -25 -151 16 -16 36 -29 45 -29 62 0
106 64 86 125 -6 18 -16 38 -23 43 -19 16 -60 22 -83 12z"/>
<path d="M8700 3160 l0 -63 45 5 c55 7 75 22 75 58 0 36 -20 51 -75 58 l-45 5
0 -63z"/>
<path d="M18786 3170 c-3 -8 -14 -40 -26 -70 -11 -30 -20 -56 -20 -57 0 -2 23
-3 50 -3 28 0 50 3 50 8 -1 24 -49 135 -54 122z"/>
<path d="M9194 3140 c-59 -24 -72 -104 -25 -151 16 -16 36 -29 45 -29 62 0
106 64 86 125 -6 18 -16 38 -23 43 -19 16 -60 22 -83 12z"/>
<path d="M9615 3138 c-22 -12 -45 -37 -45 -50 0 -4 34 -8 75 -8 84 0 96 12 49
49 -30 23 -49 26 -79 9z"/>
<path d="M13663 3140 c-29 -12 -43 -40 -43 -88 0 -49 24 -80 67 -88 27 -5 37
-1 63 24 41 42 42 92 1 133 -30 30 -50 34 -88 19z"/>
<path d="M14455 3138 c-32 -17 -45 -39 -45 -79 0 -52 8 -67 42 -85 59 -31 118
10 118 82 0 35 -5 47 -31 68 -33 28 -53 31 -84 14z"/>
<path d="M15785 3138 c-22 -12 -45 -37 -45 -50 0 -4 34 -8 75 -8 84 0 96 12
49 49 -30 23 -49 26 -79 9z"/>
<path d="M19394 3138 c-12 -5 -27 -21 -33 -34 -37 -82 25 -165 99 -134 37 15
50 37 50 84 0 48 -8 65 -41 81 -32 17 -46 18 -75 3z"/>
<path d="M14265 1641 c-96 -44 -105 -76 -105 -364 0 -222 1 -235 23 -277 66
-132 248 -132 315 0 21 42 22 55 22 280 0 207 -3 240 -19 275 -22 48 -44 69
-94 90 -48 20 -93 19 -142 -4z m130 -176 c50 -49 15 -135 -55 -135 -41 0 -80
39 -80 80 0 41 39 80 80 80 19 0 40 -9 55 -25z"/>
</g>
</svg>
